<?xml version="1.0" encoding="UTF-8" standalone="no"?>
<!DOCTYPE svg PUBLIC "-//W3C//DTD SVG 1.1//EN" "http://www.w3.org/Graphics/SVG/1.1/DTD/svg11.dtd">
<svg width="100%" height="100%" viewBox="0 0 3840 2160" version="1.1" xmlns="http://www.w3.org/2000/svg" xmlns:xlink="http://www.w3.org/1999/xlink" xml:space="preserve" xmlns:serif="http://www.serif.com/" style="fill-rule:evenodd;clip-rule:evenodd;stroke-linejoin:round;stroke-miterlimit:2;">
    <g transform="matrix(1.00461,0,0,1.01519,-9.21388,0.461682)">
        <path d="M0,2150.77C354.98,2194.17 1683.56,2249.88 1943.32,2162.43C2151.85,2092.22 1713.36,1755.63 1558.54,1626.07C1406.41,1498.77 1147.21,1472.55 1014.41,1385.1C908.653,1315.45 816.194,1195.3 761.781,1101.38C713.422,1017.9 713.265,914.626 687.935,821.538C662.024,726.316 648.296,621.796 606.316,530.04C560.972,430.931 472.227,294.251 415.87,226.883C377.596,181.129 312.227,155.628 268.178,125.83C229.488,99.657 193.867,67.939 151.579,48.097C106.883,27.126 45.344,12.955 0,0C-39.768,-11.362 -87.129,-25.327 -120.486,-29.636C-205.484,-40.614 -156.308,69.549 -156.854,79.279C-175.208,406.502 -91.685,1387.65 -81.619,1734.9C-77.526,1876.11 -140.224,2133.62 0,2150.77ZM1783.97,1608.93C1829.55,1608.93 1866.56,1645.94 1866.56,1691.52C1866.56,1737.11 1829.55,1774.12 1783.97,1774.12C1738.38,1774.12 1701.38,1737.11 1701.38,1691.52C1701.38,1645.94 1738.38,1608.93 1783.97,1608.93ZM1163.89,829.312C1301.81,829.312 1413.79,941.284 1413.79,1079.2C1413.79,1217.12 1301.81,1329.1 1163.89,1329.1C1025.97,1329.1 914.002,1217.12 914.002,1079.2C914.002,941.284 1025.97,829.312 1163.89,829.312ZM663.041,145.263C736.511,145.263 796.159,204.911 796.159,278.381C796.159,351.85 736.511,411.498 663.041,411.498C589.572,411.498 529.924,351.85 529.924,278.381C529.924,204.911 589.572,145.263 663.041,145.263Z" style="fill:none;"/>
        <clipPath id="_clip1">
            <path d="M0,2150.77C354.98,2194.17 1683.56,2249.88 1943.32,2162.43C2151.85,2092.22 1713.36,1755.63 1558.54,1626.07C1406.41,1498.77 1147.21,1472.55 1014.41,1385.1C908.653,1315.45 816.194,1195.3 761.781,1101.38C713.422,1017.9 713.265,914.626 687.935,821.538C662.024,726.316 648.296,621.796 606.316,530.04C560.972,430.931 472.227,294.251 415.87,226.883C377.596,181.129 312.227,155.628 268.178,125.83C229.488,99.657 193.867,67.939 151.579,48.097C106.883,27.126 45.344,12.955 0,0C-39.768,-11.362 -87.129,-25.327 -120.486,-29.636C-205.484,-40.614 -156.308,69.549 -156.854,79.279C-175.208,406.502 -91.685,1387.65 -81.619,1734.9C-77.526,1876.11 -140.224,2133.62 0,2150.77ZM1783.97,1608.93C1829.55,1608.93 1866.56,1645.94 1866.56,1691.52C1866.56,1737.11 1829.55,1774.12 1783.97,1774.12C1738.38,1774.12 1701.38,1737.11 1701.38,1691.52C1701.38,1645.94 1738.38,1608.93 1783.97,1608.93ZM1163.89,829.312C1301.81,829.312 1413.79,941.284 1413.79,1079.2C1413.79,1217.12 1301.81,1329.1 1163.89,1329.1C1025.97,1329.1 914.002,1217.12 914.002,1079.2C914.002,941.284 1025.97,829.312 1163.89,829.312ZM663.041,145.263C736.511,145.263 796.159,204.911 796.159,278.381C796.159,351.85 736.511,411.498 663.041,411.498C589.572,411.498 529.924,351.85 529.924,278.381C529.924,204.911 589.572,145.263 663.041,145.263Z"/>
        </clipPath>
        <g clip-path="url(#_clip1)">
            <g transform="matrix(2,0,0,1.21485,-3840,-464.072)">
                <rect x="1920" y="382" width="1920" height="1778" style="fill:rgb(252,158,79);"/>
            </g>
            <g id="Layer1" transform="matrix(1,0,0,1,23,-245.212)">
                <g transform="matrix(1.88219,1.7339,-1.7339,1.88219,-11800.6,-13606.2)">
                    <circle cx="7099" cy="798" r="80" style="fill:rgb(244,68,46);"/>
                </g>
                <g transform="matrix(6.27396,5.77967,-5.77967,6.27396,165.459,-84.6267)">
                    <path d="M13.011,19L35.011,19L35.011,32.008C35.011,33.108 34.121,34 33.019,34L15.002,34C13.902,34 13.011,33.107 13.011,32.008L13.011,19ZM20.011,22.5C20.011,23.056 20.457,23.5 21.008,23.5L27.014,23.5C27.558,23.5 28.011,23.052 28.011,22.5C28.011,21.944 27.564,21.5 27.014,21.5L21.008,21.5C20.464,21.5 20.011,21.948 20.011,22.5ZM12.907,14.888C13.163,14.397 13.816,14 14.369,14L33.654,14C34.205,14 34.86,14.398 35.116,14.888L35.82,16.234C36.329,17.209 35.851,18 34.745,18L13.278,18C12.175,18 11.694,17.21 12.204,16.234L12.907,14.888Z" style="fill:white;"/>
                </g>
                <g transform="matrix(-0.00111804,2.55911,-2.55911,-0.00111804,2636.96,-17961.5)">
                    <circle cx="7099" cy="798" r="80" style="fill:rgb(63,18,37);"/>
                </g>
                <g transform="matrix(-0.0037268,8.53036,-8.53036,-0.0037268,791.672,-0.0115068)">
                    <path d="M13.011,19L35.011,19L35.011,32.008C35.011,33.108 34.121,34 33.019,34L15.002,34C13.902,34 13.011,33.107 13.011,32.008L13.011,19ZM20.011,22.5C20.011,23.056 20.457,23.5 21.008,23.5L27.014,23.5C27.558,23.5 28.011,23.052 28.011,22.5C28.011,21.944 27.564,21.5 27.014,21.5L21.008,21.5C20.464,21.5 20.011,21.948 20.011,22.5ZM12.907,14.888C13.163,14.397 13.816,14 14.369,14L33.654,14C34.205,14 34.86,14.398 35.116,14.888L35.82,16.234C36.329,17.209 35.851,18 34.745,18L13.278,18C12.175,18 11.694,17.21 12.204,16.234L12.907,14.888Z" style="fill:white;"/>
                </g>
                <g transform="matrix(-2.55908,0.0131294,-0.0131294,-2.55908,18354.8,2563.12)">
                    <circle cx="7099" cy="798" r="80" style="fill:rgb(63,18,37);"/>
                </g>
                <g transform="matrix(-8.53025,0.0437646,-0.0437646,-8.53025,383.274,817.861)">
                    <path d="M13.011,19L35.011,19L35.011,32.008C35.011,33.108 34.121,34 33.019,34L15.002,34C13.902,34 13.011,33.107 13.011,32.008L13.011,19ZM20.011,22.5C20.011,23.056 20.457,23.5 21.008,23.5L27.014,23.5C27.558,23.5 28.011,23.052 28.011,22.5C28.011,21.944 27.564,21.5 27.014,21.5L21.008,21.5C20.464,21.5 20.011,21.948 20.011,22.5ZM12.907,14.888C13.163,14.397 13.816,14 14.369,14L33.654,14C34.205,14 34.86,14.398 35.116,14.888L35.82,16.234C36.329,17.209 35.851,18 34.745,18L13.278,18C12.175,18 11.694,17.21 12.204,16.234L12.907,14.888Z" style="fill:white;"/>
                </g>
                <g transform="matrix(-1.90787,-1.7056,1.7056,-1.90787,12769.8,14244.7)">
                    <circle cx="7099" cy="798" r="80" style="fill:rgb(244,68,46);"/>
                </g>
                <g transform="matrix(-6.35957,-5.68534,5.68534,-6.35957,603.111,903.331)">
                    <path d="M13.011,19L35.011,19L35.011,32.008C35.011,33.108 34.121,34 33.019,34L15.002,34C13.902,34 13.011,33.107 13.011,32.008L13.011,19ZM20.011,22.5C20.011,23.056 20.457,23.5 21.008,23.5L27.014,23.5C27.558,23.5 28.011,23.052 28.011,22.5C28.011,21.944 27.564,21.5 27.014,21.5L21.008,21.5C20.464,21.5 20.011,21.948 20.011,22.5ZM12.907,14.888C13.163,14.397 13.816,14 14.369,14L33.654,14C34.205,14 34.86,14.398 35.116,14.888L35.82,16.234C36.329,17.209 35.851,18 34.745,18L13.278,18C12.175,18 11.694,17.21 12.204,16.234L12.907,14.888Z" style="fill:white;"/>
                </g>
                <g transform="matrix(1.78142,-1.83727,1.83727,1.78142,-13935.1,12644.9)">
                    <circle cx="7099" cy="798" r="80" style="fill:rgb(244,68,46);"/>
                </g>
                <g transform="matrix(5.93808,-6.12424,6.12424,5.93808,-112.17,1028.18)">
                    <path d="M13.011,19L35.011,19L35.011,32.008C35.011,33.108 34.121,34 33.019,34L15.002,34C13.902,34 13.011,33.107 13.011,32.008L13.011,19ZM20.011,22.5C20.011,23.056 20.457,23.5 21.008,23.5L27.014,23.5C27.558,23.5 28.011,23.052 28.011,22.5C28.011,21.944 27.564,21.5 27.014,21.5L21.008,21.5C20.464,21.5 20.011,21.948 20.011,22.5ZM12.907,14.888C13.163,14.397 13.816,14 14.369,14L33.654,14C34.205,14 34.86,14.398 35.116,14.888L35.82,16.234C36.329,17.209 35.851,18 34.745,18L13.278,18C12.175,18 11.694,17.21 12.204,16.234L12.907,14.888Z" style="fill:white;"/>
                </g>
                <g transform="matrix(2.55911,0,0,2.55911,-17580.3,-1018.53)">
                    <circle cx="7099" cy="798" r="80" style="fill:rgb(63,18,37);"/>
                </g>
                <g transform="matrix(8.53036,0,0,8.53036,382.024,818.915)">
                    <path d="M13.011,19L35.011,19L35.011,32.008C35.011,33.108 34.121,34 33.019,34L15.002,34C13.902,34 13.011,33.107 13.011,32.008L13.011,19ZM20.011,22.5C20.011,23.056 20.457,23.5 21.008,23.5L27.014,23.5C27.558,23.5 28.011,23.052 28.011,22.5C28.011,21.944 27.564,21.5 27.014,21.5L21.008,21.5C20.464,21.5 20.011,21.948 20.011,22.5ZM12.907,14.888C13.163,14.397 13.816,14 14.369,14L33.654,14C34.205,14 34.86,14.398 35.116,14.888L35.82,16.234C36.329,17.209 35.851,18 34.745,18L13.278,18C12.175,18 11.694,17.21 12.204,16.234L12.907,14.888Z" style="fill:white;"/>
                </g>
                <g transform="matrix(-1.77478,1.84369,-1.84369,-1.77478,15066.7,-11467.4)">
                    <circle cx="7099" cy="798" r="80" style="fill:rgb(244,68,46);"/>
                </g>
                <g transform="matrix(-5.91592,6.14565,-6.14565,-5.91592,1285.86,199.143)">
                    <path d="M13.011,19L35.011,19L35.011,32.008C35.011,33.108 34.121,34 33.019,34L15.002,34C13.902,34 13.011,33.107 13.011,32.008L13.011,19ZM20.011,22.5C20.011,23.056 20.457,23.5 21.008,23.5L27.014,23.5C27.558,23.5 28.011,23.052 28.011,22.5C28.011,21.944 27.564,21.5 27.014,21.5L21.008,21.5C20.464,21.5 20.011,21.948 20.011,22.5ZM12.907,14.888C13.163,14.397 13.816,14 14.369,14L33.654,14C34.205,14 34.86,14.398 35.116,14.888L35.82,16.234C36.329,17.209 35.851,18 34.745,18L13.278,18C12.175,18 11.694,17.21 12.204,16.234L12.907,14.888Z" style="fill:white;"/>
                </g>
                <g transform="matrix(0.0273933,-2.55896,2.55896,0.0273933,-1240.21,18758.4)">
                    <circle cx="7099" cy="798" r="80" style="fill:rgb(63,18,37);"/>
                </g>
                <g transform="matrix(0.0913111,-8.52988,8.52988,0.0913111,789.402,816.813)">
                    <path d="M13.011,19L35.011,19L35.011,32.008C35.011,33.108 34.121,34 33.019,34L15.002,34C13.902,34 13.011,33.107 13.011,32.008L13.011,19ZM20.011,22.5C20.011,23.056 20.457,23.5 21.008,23.5L27.014,23.5C27.558,23.5 28.011,23.052 28.011,22.5C28.011,21.944 27.564,21.5 27.014,21.5L21.008,21.5C20.464,21.5 20.011,21.948 20.011,22.5ZM12.907,14.888C13.163,14.397 13.816,14 14.369,14L33.654,14C34.205,14 34.86,14.398 35.116,14.888L35.82,16.234C36.329,17.209 35.851,18 34.745,18L13.278,18C12.175,18 11.694,17.21 12.204,16.234L12.907,14.888Z" style="fill:white;"/>
                </g>
                <g transform="matrix(1.80663,1.81249,-1.81249,1.80663,-10382.6,-13284.9)">
                    <circle cx="7099" cy="798" r="80" style="fill:rgb(244,68,46);"/>
                </g>
                <g transform="matrix(6.0221,6.04164,-6.04164,6.0221,996.709,734.042)">
                    <path d="M13.011,19L35.011,19L35.011,32.008C35.011,33.108 34.121,34 33.019,34L15.002,34C13.902,34 13.011,33.107 13.011,32.008L13.011,19ZM20.011,22.5C20.011,23.056 20.457,23.5 21.008,23.5L27.014,23.5C27.558,23.5 28.011,23.052 28.011,22.5C28.011,21.944 27.564,21.5 27.014,21.5L21.008,21.5C20.464,21.5 20.011,21.948 20.011,22.5ZM12.907,14.888C13.163,14.397 13.816,14 14.369,14L33.654,14C34.205,14 34.86,14.398 35.116,14.888L35.82,16.234C36.329,17.209 35.851,18 34.745,18L13.278,18C12.175,18 11.694,17.21 12.204,16.234L12.907,14.888Z" style="fill:white;"/>
                </g>
                <g transform="matrix(-1.1502,0.000955809,-0.000955809,-1.1502,8538.12,1314.11)">
                    <circle cx="7099" cy="798" r="80" style="fill:rgb(123,35,40);"/>
                </g>
                <g transform="matrix(-3.83401,0.00318603,-0.00318603,-3.83401,464.212,494.978)">
                    <path d="M13.011,19L35.011,19L35.011,32.008C35.011,33.108 34.121,34 33.019,34L15.002,34C13.902,34 13.011,33.107 13.011,32.008L13.011,19ZM20.011,22.5C20.011,23.056 20.457,23.5 21.008,23.5L27.014,23.5C27.558,23.5 28.011,23.052 28.011,22.5C28.011,21.944 27.564,21.5 27.014,21.5L21.008,21.5C20.464,21.5 20.011,21.948 20.011,22.5ZM12.907,14.888C13.163,14.397 13.816,14 14.369,14L33.654,14C34.205,14 34.86,14.398 35.116,14.888L35.82,16.234C36.329,17.209 35.851,18 34.745,18L13.278,18C12.175,18 11.694,17.21 12.204,16.234L12.907,14.888Z" style="fill:white;"/>
                </g>
                <g transform="matrix(-0.00502919,1.15019,-1.15019,-0.00502919,1335.68,-7342.32)">
                    <circle cx="7099" cy="798" r="80" style="fill:rgb(123,35,40);"/>
                </g>
                <g transform="matrix(-0.016764,3.83397,-3.83397,-0.016764,474.543,727.219)">
                    <path d="M13.011,19L35.011,19L35.011,32.008C35.011,33.108 34.121,34 33.019,34L15.002,34C13.902,34 13.011,33.107 13.011,32.008L13.011,19ZM20.011,22.5C20.011,23.056 20.457,23.5 21.008,23.5L27.014,23.5C27.558,23.5 28.011,23.052 28.011,22.5C28.011,21.944 27.564,21.5 27.014,21.5L21.008,21.5C20.464,21.5 20.011,21.948 20.011,22.5ZM12.907,14.888C13.163,14.397 13.816,14 14.369,14L33.654,14C34.205,14 34.86,14.398 35.116,14.888L35.82,16.234C36.329,17.209 35.851,18 34.745,18L13.278,18C12.175,18 11.694,17.21 12.204,16.234L12.907,14.888Z" style="fill:white;"/>
                </g>
                <g transform="matrix(-0.000940057,-1.1502,1.1502,-0.000940057,-119.643,8575.53)">
                    <circle cx="7099" cy="798" r="80" style="fill:rgb(123,35,40);"/>
                </g>
                <g transform="matrix(-0.00313352,-3.83401,3.83401,-0.00313352,699.604,501.632)">
                    <path d="M13.011,19L35.011,19L35.011,32.008C35.011,33.108 34.121,34 33.019,34L15.002,34C13.902,34 13.011,33.107 13.011,32.008L13.011,19ZM20.011,22.5C20.011,23.056 20.457,23.5 21.008,23.5L27.014,23.5C27.558,23.5 28.011,23.052 28.011,22.5C28.011,21.944 27.564,21.5 27.014,21.5L21.008,21.5C20.464,21.5 20.011,21.948 20.011,22.5ZM12.907,14.888C13.163,14.397 13.816,14 14.369,14L33.654,14C34.205,14 34.86,14.398 35.116,14.888L35.82,16.234C36.329,17.209 35.851,18 34.745,18L13.278,18C12.175,18 11.694,17.21 12.204,16.234L12.907,14.888Z" style="fill:white;"/>
                </g>
                <g transform="matrix(1.15019,-0.00517565,0.00517565,1.15019,-7377.75,-62.2512)">
                    <circle cx="7099" cy="798" r="80" style="fill:rgb(123,35,40);"/>
                </g>
                <g transform="matrix(3.83397,-0.0172522,0.0172522,3.83397,699.108,727.258)">
                    <path d="M13.011,19L35.011,19L35.011,32.008C35.011,33.108 34.121,34 33.019,34L15.002,34C13.902,34 13.011,33.107 13.011,32.008L13.011,19ZM20.011,22.5C20.011,23.056 20.457,23.5 21.008,23.5L27.014,23.5C27.558,23.5 28.011,23.052 28.011,22.5C28.011,21.944 27.564,21.5 27.014,21.5L21.008,21.5C20.464,21.5 20.011,21.948 20.011,22.5ZM12.907,14.888C13.163,14.397 13.816,14 14.369,14L33.654,14C34.205,14 34.86,14.398 35.116,14.888L35.82,16.234C36.329,17.209 35.851,18 34.745,18L13.278,18C12.175,18 11.694,17.21 12.204,16.234L12.907,14.888Z" style="fill:white;"/>
                </g>
                <g transform="matrix(1.88219,1.7339,-1.7339,1.88219,-10572.3,-13598.4)">
                    <circle cx="7099" cy="798" r="80" style="fill:rgb(63,18,37);"/>
                </g>
                <g transform="matrix(6.27396,5.77967,-5.77967,6.27396,1393.79,-76.8534)">
                    <path d="M13.011,19L35.011,19L35.011,32.008C35.011,33.108 34.121,34 33.019,34L15.002,34C13.902,34 13.011,33.107 13.011,32.008L13.011,19ZM20.011,22.5C20.011,23.056 20.457,23.5 21.008,23.5L27.014,23.5C27.558,23.5 28.011,23.052 28.011,22.5C28.011,21.944 27.564,21.5 27.014,21.5L21.008,21.5C20.464,21.5 20.011,21.948 20.011,22.5ZM12.907,14.888C13.163,14.397 13.816,14 14.369,14L33.654,14C34.205,14 34.86,14.398 35.116,14.888L35.82,16.234C36.329,17.209 35.851,18 34.745,18L13.278,18C12.175,18 11.694,17.21 12.204,16.234L12.907,14.888Z" style="fill:white;"/>
                </g>
                <g transform="matrix(-0.00111804,2.55911,-2.55911,-0.00111804,3865.29,-17953.7)">
                    <circle cx="7099" cy="798" r="80" style="fill:rgb(248,113,63);"/>
                </g>
                <g transform="matrix(-0.0037268,8.53036,-8.53036,-0.0037268,2020,7.76177)">
                    <path d="M13.011,19L35.011,19L35.011,32.008C35.011,33.108 34.121,34 33.019,34L15.002,34C13.902,34 13.011,33.107 13.011,32.008L13.011,19ZM20.011,22.5C20.011,23.056 20.457,23.5 21.008,23.5L27.014,23.5C27.558,23.5 28.011,23.052 28.011,22.5C28.011,21.944 27.564,21.5 27.014,21.5L21.008,21.5C20.464,21.5 20.011,21.948 20.011,22.5ZM12.907,14.888C13.163,14.397 13.816,14 14.369,14L33.654,14C34.205,14 34.86,14.398 35.116,14.888L35.82,16.234C36.329,17.209 35.851,18 34.745,18L13.278,18C12.175,18 11.694,17.21 12.204,16.234L12.907,14.888Z" style="fill:white;"/>
                </g>
                <g transform="matrix(-2.55908,0.0131294,-0.0131294,-2.55908,19583.1,2570.9)">
                    <circle cx="7099" cy="798" r="80" style="fill:rgb(248,113,63);"/>
                </g>
                <g transform="matrix(-8.53025,0.0437646,-0.0437646,-8.53025,1611.61,825.635)">
                    <path d="M13.011,19L35.011,19L35.011,32.008C35.011,33.108 34.121,34 33.019,34L15.002,34C13.902,34 13.011,33.107 13.011,32.008L13.011,19ZM20.011,22.5C20.011,23.056 20.457,23.5 21.008,23.5L27.014,23.5C27.558,23.5 28.011,23.052 28.011,22.5C28.011,21.944 27.564,21.5 27.014,21.5L21.008,21.5C20.464,21.5 20.011,21.948 20.011,22.5ZM12.907,14.888C13.163,14.397 13.816,14 14.369,14L33.654,14C34.205,14 34.86,14.398 35.116,14.888L35.82,16.234C36.329,17.209 35.851,18 34.745,18L13.278,18C12.175,18 11.694,17.21 12.204,16.234L12.907,14.888Z" style="fill:white;"/>
                </g>
                <g transform="matrix(-1.90787,-1.7056,1.7056,-1.90787,13998.1,14252.5)">
                    <circle cx="7099" cy="798" r="80" style="fill:rgb(63,18,37);"/>
                </g>
                <g transform="matrix(-6.35957,-5.68534,5.68534,-6.35957,1831.44,911.104)">
                    <path d="M13.011,19L35.011,19L35.011,32.008C35.011,33.108 34.121,34 33.019,34L15.002,34C13.902,34 13.011,33.107 13.011,32.008L13.011,19ZM20.011,22.5C20.011,23.056 20.457,23.5 21.008,23.5L27.014,23.5C27.558,23.5 28.011,23.052 28.011,22.5C28.011,21.944 27.564,21.5 27.014,21.5L21.008,21.5C20.464,21.5 20.011,21.948 20.011,22.5ZM12.907,14.888C13.163,14.397 13.816,14 14.369,14L33.654,14C34.205,14 34.86,14.398 35.116,14.888L35.82,16.234C36.329,17.209 35.851,18 34.745,18L13.278,18C12.175,18 11.694,17.21 12.204,16.234L12.907,14.888Z" style="fill:white;"/>
                </g>
                <g transform="matrix(1.78142,-1.83727,1.83727,1.78142,-12706.8,12652.6)">
                    <circle cx="7099" cy="798" r="80" style="fill:rgb(63,18,37);"/>
                </g>
                <g transform="matrix(5.93808,-6.12424,6.12424,5.93808,1116.12,1035.96)">
                    <path d="M13.011,19L35.011,19L35.011,32.008C35.011,33.108 34.121,34 33.019,34L15.002,34C13.902,34 13.011,33.107 13.011,32.008L13.011,19ZM20.011,22.5C20.011,23.056 20.457,23.5 21.008,23.5L27.014,23.5C27.558,23.5 28.011,23.052 28.011,22.5C28.011,21.944 27.564,21.5 27.014,21.5L21.008,21.5C20.464,21.5 20.011,21.948 20.011,22.5ZM12.907,14.888C13.163,14.397 13.816,14 14.369,14L33.654,14C34.205,14 34.86,14.398 35.116,14.888L35.82,16.234C36.329,17.209 35.851,18 34.745,18L13.278,18C12.175,18 11.694,17.21 12.204,16.234L12.907,14.888Z" style="fill:white;"/>
                </g>
                <g transform="matrix(2.55911,0,0,2.55911,-16352,-1010.75)">
                    <circle cx="7099" cy="798" r="80" style="fill:rgb(248,113,63);"/>
                </g>
                <g transform="matrix(8.53036,0,0,8.53036,1610.32,826.688)">
                    <path d="M13.011,19L35.011,19L35.011,32.008C35.011,33.108 34.121,34 33.019,34L15.002,34C13.902,34 13.011,33.107 13.011,32.008L13.011,19ZM20.011,22.5C20.011,23.056 20.457,23.5 21.008,23.5L27.014,23.5C27.558,23.5 28.011,23.052 28.011,22.5C28.011,21.944 27.564,21.5 27.014,21.5L21.008,21.5C20.464,21.5 20.011,21.948 20.011,22.5ZM12.907,14.888C13.163,14.397 13.816,14 14.369,14L33.654,14C34.205,14 34.86,14.398 35.116,14.888L35.82,16.234C36.329,17.209 35.851,18 34.745,18L13.278,18C12.175,18 11.694,17.21 12.204,16.234L12.907,14.888Z" style="fill:white;"/>
                </g>
                <g transform="matrix(-1.77478,1.84369,-1.84369,-1.77478,16295.1,-11459.6)">
                    <circle cx="7099" cy="798" r="80" style="fill:rgb(63,18,37);"/>
                </g>
                <g transform="matrix(-5.91592,6.14565,-6.14565,-5.91592,2514.19,206.916)">
                    <path d="M13.011,19L35.011,19L35.011,32.008C35.011,33.108 34.121,34 33.019,34L15.002,34C13.902,34 13.011,33.107 13.011,32.008L13.011,19ZM20.011,22.5C20.011,23.056 20.457,23.5 21.008,23.5L27.014,23.5C27.558,23.5 28.011,23.052 28.011,22.5C28.011,21.944 27.564,21.5 27.014,21.5L21.008,21.5C20.464,21.5 20.011,21.948 20.011,22.5ZM12.907,14.888C13.163,14.397 13.816,14 14.369,14L33.654,14C34.205,14 34.86,14.398 35.116,14.888L35.82,16.234C36.329,17.209 35.851,18 34.745,18L13.278,18C12.175,18 11.694,17.21 12.204,16.234L12.907,14.888Z" style="fill:white;"/>
                </g>
                <g transform="matrix(0.0273933,-2.55896,2.55896,0.0273933,-11.8736,18766.2)">
                    <circle cx="7099" cy="798" r="80" style="fill:rgb(248,113,63);"/>
                </g>
                <g transform="matrix(0.0913111,-8.52988,8.52988,0.0913111,2017.73,824.586)">
                    <path d="M13.011,19L35.011,19L35.011,32.008C35.011,33.108 34.121,34 33.019,34L15.002,34C13.902,34 13.011,33.107 13.011,32.008L13.011,19ZM20.011,22.5C20.011,23.056 20.457,23.5 21.008,23.5L27.014,23.5C27.558,23.5 28.011,23.052 28.011,22.5C28.011,21.944 27.564,21.5 27.014,21.5L21.008,21.5C20.464,21.5 20.011,21.948 20.011,22.5ZM12.907,14.888C13.163,14.397 13.816,14 14.369,14L33.654,14C34.205,14 34.86,14.398 35.116,14.888L35.82,16.234C36.329,17.209 35.851,18 34.745,18L13.278,18C12.175,18 11.694,17.21 12.204,16.234L12.907,14.888Z" style="fill:white;"/>
                </g>
                <g transform="matrix(1.80663,1.81249,-1.81249,1.80663,-9154.29,-13277.2)">
                    <circle cx="7099" cy="798" r="80" style="fill:rgb(63,18,37);"/>
                </g>
                <g transform="matrix(6.0221,6.04164,-6.04164,6.0221,2225,741.816)">
                    <path d="M13.011,19L35.011,19L35.011,32.008C35.011,33.108 34.121,34 33.019,34L15.002,34C13.902,34 13.011,33.107 13.011,32.008L13.011,19ZM20.011,22.5C20.011,23.056 20.457,23.5 21.008,23.5L27.014,23.5C27.558,23.5 28.011,23.052 28.011,22.5C28.011,21.944 27.564,21.5 27.014,21.5L21.008,21.5C20.464,21.5 20.011,21.948 20.011,22.5ZM12.907,14.888C13.163,14.397 13.816,14 14.369,14L33.654,14C34.205,14 34.86,14.398 35.116,14.888L35.82,16.234C36.329,17.209 35.851,18 34.745,18L13.278,18C12.175,18 11.694,17.21 12.204,16.234L12.907,14.888Z" style="fill:white;"/>
                </g>
                <g transform="matrix(-1.1502,0.000955809,-0.000955809,-1.1502,9766.45,1321.89)">
                    <circle cx="7099" cy="798" r="80" style="fill:rgb(123,35,40);"/>
                </g>
                <g transform="matrix(-3.83401,0.00318603,-0.00318603,-3.83401,1692.54,502.751)">
                    <path d="M13.011,19L35.011,19L35.011,32.008C35.011,33.108 34.121,34 33.019,34L15.002,34C13.902,34 13.011,33.107 13.011,32.008L13.011,19ZM20.011,22.5C20.011,23.056 20.457,23.5 21.008,23.5L27.014,23.5C27.558,23.5 28.011,23.052 28.011,22.5C28.011,21.944 27.564,21.5 27.014,21.5L21.008,21.5C20.464,21.5 20.011,21.948 20.011,22.5ZM12.907,14.888C13.163,14.397 13.816,14 14.369,14L33.654,14C34.205,14 34.86,14.398 35.116,14.888L35.82,16.234C36.329,17.209 35.851,18 34.745,18L13.278,18C12.175,18 11.694,17.21 12.204,16.234L12.907,14.888Z" style="fill:white;"/>
                </g>
                <g transform="matrix(-0.00502919,1.15019,-1.15019,-0.00502919,2564.01,-7334.55)">
                    <circle cx="7099" cy="798" r="80" style="fill:rgb(123,35,40);"/>
                </g>
                <g transform="matrix(-0.016764,3.83397,-3.83397,-0.016764,1702.88,734.992)">
                    <path d="M13.011,19L35.011,19L35.011,32.008C35.011,33.108 34.121,34 33.019,34L15.002,34C13.902,34 13.011,33.107 13.011,32.008L13.011,19ZM20.011,22.5C20.011,23.056 20.457,23.5 21.008,23.5L27.014,23.5C27.558,23.5 28.011,23.052 28.011,22.5C28.011,21.944 27.564,21.5 27.014,21.5L21.008,21.5C20.464,21.5 20.011,21.948 20.011,22.5ZM12.907,14.888C13.163,14.397 13.816,14 14.369,14L33.654,14C34.205,14 34.86,14.398 35.116,14.888L35.82,16.234C36.329,17.209 35.851,18 34.745,18L13.278,18C12.175,18 11.694,17.21 12.204,16.234L12.907,14.888Z" style="fill:white;"/>
                </g>
                <g transform="matrix(-0.000940057,-1.1502,1.1502,-0.000940057,1108.69,8583.3)">
                    <circle cx="7099" cy="798" r="80" style="fill:rgb(123,35,40);"/>
                </g>
                <g transform="matrix(-0.00313352,-3.83401,3.83401,-0.00313352,1927.94,509.405)">
                    <path d="M13.011,19L35.011,19L35.011,32.008C35.011,33.108 34.121,34 33.019,34L15.002,34C13.902,34 13.011,33.107 13.011,32.008L13.011,19ZM20.011,22.5C20.011,23.056 20.457,23.5 21.008,23.5L27.014,23.5C27.558,23.5 28.011,23.052 28.011,22.5C28.011,21.944 27.564,21.5 27.014,21.5L21.008,21.5C20.464,21.5 20.011,21.948 20.011,22.5ZM12.907,14.888C13.163,14.397 13.816,14 14.369,14L33.654,14C34.205,14 34.86,14.398 35.116,14.888L35.82,16.234C36.329,17.209 35.851,18 34.745,18L13.278,18C12.175,18 11.694,17.21 12.204,16.234L12.907,14.888Z" style="fill:white;"/>
                </g>
                <g transform="matrix(1.15019,-0.00517565,0.00517565,1.15019,-6149.42,-54.4779)">
                    <circle cx="7099" cy="798" r="80" style="fill:rgb(123,35,40);"/>
                </g>
                <g transform="matrix(3.83397,-0.0172522,0.0172522,3.83397,1927.44,735.031)">
                    <path d="M13.011,19L35.011,19L35.011,32.008C35.011,33.108 34.121,34 33.019,34L15.002,34C13.902,34 13.011,33.107 13.011,32.008L13.011,19ZM20.011,22.5C20.011,23.056 20.457,23.5 21.008,23.5L27.014,23.5C27.558,23.5 28.011,23.052 28.011,22.5C28.011,21.944 27.564,21.5 27.014,21.5L21.008,21.5C20.464,21.5 20.011,21.948 20.011,22.5ZM12.907,14.888C13.163,14.397 13.816,14 14.369,14L33.654,14C34.205,14 34.86,14.398 35.116,14.888L35.82,16.234C36.329,17.209 35.851,18 34.745,18L13.278,18C12.175,18 11.694,17.21 12.204,16.234L12.907,14.888Z" style="fill:white;"/>
                </g>
                <g transform="matrix(1.88219,1.7339,-1.7339,1.88219,-10572.3,-13598.4)">
                    <circle cx="7099" cy="798" r="80" style="fill:rgb(63,18,37);"/>
                </g>
                <g transform="matrix(6.27396,5.77967,-5.77967,6.27396,1393.79,-76.8534)">
                    <path d="M13.011,19L35.011,19L35.011,32.008C35.011,33.108 34.121,34 33.019,34L15.002,34C13.902,34 13.011,33.107 13.011,32.008L13.011,19ZM20.011,22.5C20.011,23.056 20.457,23.5 21.008,23.5L27.014,23.5C27.558,23.5 28.011,23.052 28.011,22.5C28.011,21.944 27.564,21.5 27.014,21.5L21.008,21.5C20.464,21.5 20.011,21.948 20.011,22.5ZM12.907,14.888C13.163,14.397 13.816,14 14.369,14L33.654,14C34.205,14 34.86,14.398 35.116,14.888L35.82,16.234C36.329,17.209 35.851,18 34.745,18L13.278,18C12.175,18 11.694,17.21 12.204,16.234L12.907,14.888Z" style="fill:white;"/>
                </g>
                <g transform="matrix(-0.00111804,2.55911,-2.55911,-0.00111804,3865.29,-17953.7)">
                    <circle cx="7099" cy="798" r="80" style="fill:rgb(248,113,63);"/>
                </g>
                <g transform="matrix(-0.0037268,8.53036,-8.53036,-0.0037268,2020,7.76177)">
                    <path d="M13.011,19L35.011,19L35.011,32.008C35.011,33.108 34.121,34 33.019,34L15.002,34C13.902,34 13.011,33.107 13.011,32.008L13.011,19ZM20.011,22.5C20.011,23.056 20.457,23.5 21.008,23.5L27.014,23.5C27.558,23.5 28.011,23.052 28.011,22.5C28.011,21.944 27.564,21.5 27.014,21.5L21.008,21.5C20.464,21.5 20.011,21.948 20.011,22.5ZM12.907,14.888C13.163,14.397 13.816,14 14.369,14L33.654,14C34.205,14 34.86,14.398 35.116,14.888L35.82,16.234C36.329,17.209 35.851,18 34.745,18L13.278,18C12.175,18 11.694,17.21 12.204,16.234L12.907,14.888Z" style="fill:white;"/>
                </g>
                <g transform="matrix(-2.55908,0.0131294,-0.0131294,-2.55908,19583.1,2570.9)">
                    <circle cx="7099" cy="798" r="80" style="fill:rgb(248,113,63);"/>
                </g>
                <g transform="matrix(-8.53025,0.0437646,-0.0437646,-8.53025,1611.61,825.635)">
                    <path d="M13.011,19L35.011,19L35.011,32.008C35.011,33.108 34.121,34 33.019,34L15.002,34C13.902,34 13.011,33.107 13.011,32.008L13.011,19ZM20.011,22.5C20.011,23.056 20.457,23.5 21.008,23.5L27.014,23.5C27.558,23.5 28.011,23.052 28.011,22.5C28.011,21.944 27.564,21.5 27.014,21.5L21.008,21.5C20.464,21.5 20.011,21.948 20.011,22.5ZM12.907,14.888C13.163,14.397 13.816,14 14.369,14L33.654,14C34.205,14 34.86,14.398 35.116,14.888L35.82,16.234C36.329,17.209 35.851,18 34.745,18L13.278,18C12.175,18 11.694,17.21 12.204,16.234L12.907,14.888Z" style="fill:white;"/>
                </g>
                <g transform="matrix(-1.90787,-1.7056,1.7056,-1.90787,13998.1,14252.5)">
                    <circle cx="7099" cy="798" r="80" style="fill:rgb(63,18,37);"/>
                </g>
                <g transform="matrix(-6.35957,-5.68534,5.68534,-6.35957,1831.44,911.104)">
                    <path d="M13.011,19L35.011,19L35.011,32.008C35.011,33.108 34.121,34 33.019,34L15.002,34C13.902,34 13.011,33.107 13.011,32.008L13.011,19ZM20.011,22.5C20.011,23.056 20.457,23.5 21.008,23.5L27.014,23.5C27.558,23.5 28.011,23.052 28.011,22.5C28.011,21.944 27.564,21.5 27.014,21.5L21.008,21.5C20.464,21.5 20.011,21.948 20.011,22.5ZM12.907,14.888C13.163,14.397 13.816,14 14.369,14L33.654,14C34.205,14 34.86,14.398 35.116,14.888L35.82,16.234C36.329,17.209 35.851,18 34.745,18L13.278,18C12.175,18 11.694,17.21 12.204,16.234L12.907,14.888Z" style="fill:white;"/>
                </g>
                <g transform="matrix(1.78142,-1.83727,1.83727,1.78142,-12706.8,12652.6)">
                    <circle cx="7099" cy="798" r="80" style="fill:rgb(63,18,37);"/>
                </g>
                <g transform="matrix(5.93808,-6.12424,6.12424,5.93808,1116.12,1035.96)">
                    <path d="M13.011,19L35.011,19L35.011,32.008C35.011,33.108 34.121,34 33.019,34L15.002,34C13.902,34 13.011,33.107 13.011,32.008L13.011,19ZM20.011,22.5C20.011,23.056 20.457,23.5 21.008,23.5L27.014,23.5C27.558,23.5 28.011,23.052 28.011,22.5C28.011,21.944 27.564,21.5 27.014,21.5L21.008,21.5C20.464,21.5 20.011,21.948 20.011,22.5ZM12.907,14.888C13.163,14.397 13.816,14 14.369,14L33.654,14C34.205,14 34.86,14.398 35.116,14.888L35.82,16.234C36.329,17.209 35.851,18 34.745,18L13.278,18C12.175,18 11.694,17.21 12.204,16.234L12.907,14.888Z" style="fill:white;"/>
                </g>
                <g transform="matrix(2.55911,0,0,2.55911,-16352,-1010.75)">
                    <circle cx="7099" cy="798" r="80" style="fill:rgb(248,113,63);"/>
                </g>
                <g transform="matrix(8.53036,0,0,8.53036,1610.32,826.688)">
                    <path d="M13.011,19L35.011,19L35.011,32.008C35.011,33.108 34.121,34 33.019,34L15.002,34C13.902,34 13.011,33.107 13.011,32.008L13.011,19ZM20.011,22.5C20.011,23.056 20.457,23.5 21.008,23.5L27.014,23.5C27.558,23.5 28.011,23.052 28.011,22.5C28.011,21.944 27.564,21.5 27.014,21.5L21.008,21.5C20.464,21.5 20.011,21.948 20.011,22.5ZM12.907,14.888C13.163,14.397 13.816,14 14.369,14L33.654,14C34.205,14 34.86,14.398 35.116,14.888L35.82,16.234C36.329,17.209 35.851,18 34.745,18L13.278,18C12.175,18 11.694,17.21 12.204,16.234L12.907,14.888Z" style="fill:white;"/>
                </g>
                <g transform="matrix(-1.77478,1.84369,-1.84369,-1.77478,16295.1,-11459.6)">
                    <circle cx="7099" cy="798" r="80" style="fill:rgb(63,18,37);"/>
                </g>
                <g transform="matrix(-5.91592,6.14565,-6.14565,-5.91592,2514.19,206.916)">
                    <path d="M13.011,19L35.011,19L35.011,32.008C35.011,33.108 34.121,34 33.019,34L15.002,34C13.902,34 13.011,33.107 13.011,32.008L13.011,19ZM20.011,22.5C20.011,23.056 20.457,23.5 21.008,23.5L27.014,23.5C27.558,23.5 28.011,23.052 28.011,22.5C28.011,21.944 27.564,21.5 27.014,21.5L21.008,21.5C20.464,21.5 20.011,21.948 20.011,22.5ZM12.907,14.888C13.163,14.397 13.816,14 14.369,14L33.654,14C34.205,14 34.86,14.398 35.116,14.888L35.82,16.234C36.329,17.209 35.851,18 34.745,18L13.278,18C12.175,18 11.694,17.21 12.204,16.234L12.907,14.888Z" style="fill:white;"/>
                </g>
                <g transform="matrix(0.0273933,-2.55896,2.55896,0.0273933,-11.8736,18766.2)">
                    <circle cx="7099" cy="798" r="80" style="fill:rgb(248,113,63);"/>
                </g>
                <g transform="matrix(0.0913111,-8.52988,8.52988,0.0913111,2017.73,824.586)">
                    <path d="M13.011,19L35.011,19L35.011,32.008C35.011,33.108 34.121,34 33.019,34L15.002,34C13.902,34 13.011,33.107 13.011,32.008L13.011,19ZM20.011,22.5C20.011,23.056 20.457,23.5 21.008,23.5L27.014,23.5C27.558,23.5 28.011,23.052 28.011,22.5C28.011,21.944 27.564,21.5 27.014,21.5L21.008,21.5C20.464,21.5 20.011,21.948 20.011,22.5ZM12.907,14.888C13.163,14.397 13.816,14 14.369,14L33.654,14C34.205,14 34.86,14.398 35.116,14.888L35.82,16.234C36.329,17.209 35.851,18 34.745,18L13.278,18C12.175,18 11.694,17.21 12.204,16.234L12.907,14.888Z" style="fill:white;"/>
                </g>
                <g transform="matrix(1.80663,1.81249,-1.81249,1.80663,-9154.29,-13277.2)">
                    <circle cx="7099" cy="798" r="80" style="fill:rgb(63,18,37);"/>
                </g>
                <g transform="matrix(6.0221,6.04164,-6.04164,6.0221,2225,741.816)">
                    <path d="M13.011,19L35.011,19L35.011,32.008C35.011,33.108 34.121,34 33.019,34L15.002,34C13.902,34 13.011,33.107 13.011,32.008L13.011,19ZM20.011,22.5C20.011,23.056 20.457,23.5 21.008,23.5L27.014,23.5C27.558,23.5 28.011,23.052 28.011,22.5C28.011,21.944 27.564,21.5 27.014,21.5L21.008,21.5C20.464,21.5 20.011,21.948 20.011,22.5ZM12.907,14.888C13.163,14.397 13.816,14 14.369,14L33.654,14C34.205,14 34.86,14.398 35.116,14.888L35.82,16.234C36.329,17.209 35.851,18 34.745,18L13.278,18C12.175,18 11.694,17.21 12.204,16.234L12.907,14.888Z" style="fill:white;"/>
                </g>
                <g transform="matrix(-1.1502,0.000955809,-0.000955809,-1.1502,9766.45,1321.89)">
                    <circle cx="7099" cy="798" r="80" style="fill:rgb(123,35,40);"/>
                </g>
                <g transform="matrix(-3.83401,0.00318603,-0.00318603,-3.83401,1692.54,502.751)">
                    <path d="M13.011,19L35.011,19L35.011,32.008C35.011,33.108 34.121,34 33.019,34L15.002,34C13.902,34 13.011,33.107 13.011,32.008L13.011,19ZM20.011,22.5C20.011,23.056 20.457,23.5 21.008,23.5L27.014,23.5C27.558,23.5 28.011,23.052 28.011,22.5C28.011,21.944 27.564,21.5 27.014,21.5L21.008,21.5C20.464,21.5 20.011,21.948 20.011,22.5ZM12.907,14.888C13.163,14.397 13.816,14 14.369,14L33.654,14C34.205,14 34.86,14.398 35.116,14.888L35.82,16.234C36.329,17.209 35.851,18 34.745,18L13.278,18C12.175,18 11.694,17.21 12.204,16.234L12.907,14.888Z" style="fill:white;"/>
                </g>
                <g transform="matrix(-0.00502919,1.15019,-1.15019,-0.00502919,2564.01,-7334.55)">
                    <circle cx="7099" cy="798" r="80" style="fill:rgb(123,35,40);"/>
                </g>
                <g transform="matrix(-0.016764,3.83397,-3.83397,-0.016764,1702.88,734.992)">
                    <path d="M13.011,19L35.011,19L35.011,32.008C35.011,33.108 34.121,34 33.019,34L15.002,34C13.902,34 13.011,33.107 13.011,32.008L13.011,19ZM20.011,22.5C20.011,23.056 20.457,23.5 21.008,23.5L27.014,23.5C27.558,23.5 28.011,23.052 28.011,22.5C28.011,21.944 27.564,21.5 27.014,21.5L21.008,21.5C20.464,21.5 20.011,21.948 20.011,22.5ZM12.907,14.888C13.163,14.397 13.816,14 14.369,14L33.654,14C34.205,14 34.86,14.398 35.116,14.888L35.82,16.234C36.329,17.209 35.851,18 34.745,18L13.278,18C12.175,18 11.694,17.21 12.204,16.234L12.907,14.888Z" style="fill:white;"/>
                </g>
                <g transform="matrix(-0.000940057,-1.1502,1.1502,-0.000940057,1108.69,8583.3)">
                    <circle cx="7099" cy="798" r="80" style="fill:rgb(123,35,40);"/>
                </g>
                <g transform="matrix(-0.00313352,-3.83401,3.83401,-0.00313352,1927.94,509.405)">
                    <path d="M13.011,19L35.011,19L35.011,32.008C35.011,33.108 34.121,34 33.019,34L15.002,34C13.902,34 13.011,33.107 13.011,32.008L13.011,19ZM20.011,22.5C20.011,23.056 20.457,23.5 21.008,23.5L27.014,23.5C27.558,23.5 28.011,23.052 28.011,22.5C28.011,21.944 27.564,21.5 27.014,21.5L21.008,21.5C20.464,21.5 20.011,21.948 20.011,22.5ZM12.907,14.888C13.163,14.397 13.816,14 14.369,14L33.654,14C34.205,14 34.86,14.398 35.116,14.888L35.82,16.234C36.329,17.209 35.851,18 34.745,18L13.278,18C12.175,18 11.694,17.21 12.204,16.234L12.907,14.888Z" style="fill:white;"/>
                </g>
                <g transform="matrix(1.15019,-0.00517565,0.00517565,1.15019,-6149.42,-54.4779)">
                    <circle cx="7099" cy="798" r="80" style="fill:rgb(123,35,40);"/>
                </g>
                <g transform="matrix(3.83397,-0.0172522,0.0172522,3.83397,1927.44,735.031)">
                    <path d="M13.011,19L35.011,19L35.011,32.008C35.011,33.108 34.121,34 33.019,34L15.002,34C13.902,34 13.011,33.107 13.011,32.008L13.011,19ZM20.011,22.5C20.011,23.056 20.457,23.5 21.008,23.5L27.014,23.5C27.558,23.5 28.011,23.052 28.011,22.5C28.011,21.944 27.564,21.5 27.014,21.5L21.008,21.5C20.464,21.5 20.011,21.948 20.011,22.5ZM12.907,14.888C13.163,14.397 13.816,14 14.369,14L33.654,14C34.205,14 34.86,14.398 35.116,14.888L35.82,16.234C36.329,17.209 35.851,18 34.745,18L13.278,18C12.175,18 11.694,17.21 12.204,16.234L12.907,14.888Z" style="fill:white;"/>
                </g>
                <g transform="matrix(1.88219,1.7339,-1.7339,1.88219,-10580.6,-12370.2)">
                    <circle cx="7099" cy="798" r="80" style="fill:rgb(244,68,46);"/>
                </g>
                <g transform="matrix(6.27396,5.77967,-5.77967,6.27396,1385.46,1151.37)">
                    <path d="M13.011,19L35.011,19L35.011,32.008C35.011,33.108 34.121,34 33.019,34L15.002,34C13.902,34 13.011,33.107 13.011,32.008L13.011,19ZM20.011,22.5C20.011,23.056 20.457,23.5 21.008,23.5L27.014,23.5C27.558,23.5 28.011,23.052 28.011,22.5C28.011,21.944 27.564,21.5 27.014,21.5L21.008,21.5C20.464,21.5 20.011,21.948 20.011,22.5ZM12.907,14.888C13.163,14.397 13.816,14 14.369,14L33.654,14C34.205,14 34.86,14.398 35.116,14.888L35.82,16.234C36.329,17.209 35.851,18 34.745,18L13.278,18C12.175,18 11.694,17.21 12.204,16.234L12.907,14.888Z" style="fill:white;"/>
                </g>
                <g transform="matrix(-0.00111804,2.55911,-2.55911,-0.00111804,3856.96,-16725.5)">
                    <circle cx="7099" cy="798" r="80" style="fill:rgb(63,18,37);"/>
                </g>
                <g transform="matrix(-0.0037268,8.53036,-8.53036,-0.0037268,2011.67,1235.99)">
                    <path d="M13.011,19L35.011,19L35.011,32.008C35.011,33.108 34.121,34 33.019,34L15.002,34C13.902,34 13.011,33.107 13.011,32.008L13.011,19ZM20.011,22.5C20.011,23.056 20.457,23.5 21.008,23.5L27.014,23.5C27.558,23.5 28.011,23.052 28.011,22.5C28.011,21.944 27.564,21.5 27.014,21.5L21.008,21.5C20.464,21.5 20.011,21.948 20.011,22.5ZM12.907,14.888C13.163,14.397 13.816,14 14.369,14L33.654,14C34.205,14 34.86,14.398 35.116,14.888L35.82,16.234C36.329,17.209 35.851,18 34.745,18L13.278,18C12.175,18 11.694,17.21 12.204,16.234L12.907,14.888Z" style="fill:white;"/>
                </g>
                <g transform="matrix(-2.55908,0.0131294,-0.0131294,-2.55908,19574.8,3799.12)">
                    <circle cx="7099" cy="798" r="80" style="fill:rgb(63,18,37);"/>
                </g>
                <g transform="matrix(-8.53025,0.0437646,-0.0437646,-8.53025,1603.27,2053.86)">
                    <path d="M13.011,19L35.011,19L35.011,32.008C35.011,33.108 34.121,34 33.019,34L15.002,34C13.902,34 13.011,33.107 13.011,32.008L13.011,19ZM20.011,22.5C20.011,23.056 20.457,23.5 21.008,23.5L27.014,23.5C27.558,23.5 28.011,23.052 28.011,22.5C28.011,21.944 27.564,21.5 27.014,21.5L21.008,21.5C20.464,21.5 20.011,21.948 20.011,22.5ZM12.907,14.888C13.163,14.397 13.816,14 14.369,14L33.654,14C34.205,14 34.86,14.398 35.116,14.888L35.82,16.234C36.329,17.209 35.851,18 34.745,18L13.278,18C12.175,18 11.694,17.21 12.204,16.234L12.907,14.888Z" style="fill:white;"/>
                </g>
                <g transform="matrix(-1.90787,-1.7056,1.7056,-1.90787,13989.8,15480.7)">
                    <circle cx="7099" cy="798" r="80" style="fill:rgb(244,68,46);"/>
                </g>
                <g transform="matrix(-6.35957,-5.68534,5.68534,-6.35957,1823.11,2139.33)">
                    <path d="M13.011,19L35.011,19L35.011,32.008C35.011,33.108 34.121,34 33.019,34L15.002,34C13.902,34 13.011,33.107 13.011,32.008L13.011,19ZM20.011,22.5C20.011,23.056 20.457,23.5 21.008,23.5L27.014,23.5C27.558,23.5 28.011,23.052 28.011,22.5C28.011,21.944 27.564,21.5 27.014,21.5L21.008,21.5C20.464,21.5 20.011,21.948 20.011,22.5ZM12.907,14.888C13.163,14.397 13.816,14 14.369,14L33.654,14C34.205,14 34.86,14.398 35.116,14.888L35.82,16.234C36.329,17.209 35.851,18 34.745,18L13.278,18C12.175,18 11.694,17.21 12.204,16.234L12.907,14.888Z" style="fill:white;"/>
                </g>
                <g transform="matrix(1.78142,-1.83727,1.83727,1.78142,-12715.1,13880.9)">
                    <circle cx="7099" cy="798" r="80" style="fill:rgb(244,68,46);"/>
                </g>
                <g transform="matrix(5.93808,-6.12424,6.12424,5.93808,1107.83,2264.18)">
                    <path d="M13.011,19L35.011,19L35.011,32.008C35.011,33.108 34.121,34 33.019,34L15.002,34C13.902,34 13.011,33.107 13.011,32.008L13.011,19ZM20.011,22.5C20.011,23.056 20.457,23.5 21.008,23.5L27.014,23.5C27.558,23.5 28.011,23.052 28.011,22.5C28.011,21.944 27.564,21.5 27.014,21.5L21.008,21.5C20.464,21.5 20.011,21.948 20.011,22.5ZM12.907,14.888C13.163,14.397 13.816,14 14.369,14L33.654,14C34.205,14 34.86,14.398 35.116,14.888L35.82,16.234C36.329,17.209 35.851,18 34.745,18L13.278,18C12.175,18 11.694,17.21 12.204,16.234L12.907,14.888Z" style="fill:white;"/>
                </g>
                <g transform="matrix(2.55911,0,0,2.55911,-16360.3,217.474)">
                    <circle cx="7099" cy="798" r="80" style="fill:rgb(63,18,37);"/>
                </g>
                <g transform="matrix(8.53036,0,0,8.53036,1602.02,2054.91)">
                    <path d="M13.011,19L35.011,19L35.011,32.008C35.011,33.108 34.121,34 33.019,34L15.002,34C13.902,34 13.011,33.107 13.011,32.008L13.011,19ZM20.011,22.5C20.011,23.056 20.457,23.5 21.008,23.5L27.014,23.5C27.558,23.5 28.011,23.052 28.011,22.5C28.011,21.944 27.564,21.5 27.014,21.5L21.008,21.5C20.464,21.5 20.011,21.948 20.011,22.5ZM12.907,14.888C13.163,14.397 13.816,14 14.369,14L33.654,14C34.205,14 34.86,14.398 35.116,14.888L35.82,16.234C36.329,17.209 35.851,18 34.745,18L13.278,18C12.175,18 11.694,17.21 12.204,16.234L12.907,14.888Z" style="fill:white;"/>
                </g>
                <g transform="matrix(-1.77478,1.84369,-1.84369,-1.77478,16286.7,-10231.4)">
                    <circle cx="7099" cy="798" r="80" style="fill:rgb(244,68,46);"/>
                </g>
                <g transform="matrix(-5.91592,6.14565,-6.14565,-5.91592,2505.86,1435.14)">
                    <path d="M13.011,19L35.011,19L35.011,32.008C35.011,33.108 34.121,34 33.019,34L15.002,34C13.902,34 13.011,33.107 13.011,32.008L13.011,19ZM20.011,22.5C20.011,23.056 20.457,23.5 21.008,23.5L27.014,23.5C27.558,23.5 28.011,23.052 28.011,22.5C28.011,21.944 27.564,21.5 27.014,21.5L21.008,21.5C20.464,21.5 20.011,21.948 20.011,22.5ZM12.907,14.888C13.163,14.397 13.816,14 14.369,14L33.654,14C34.205,14 34.86,14.398 35.116,14.888L35.82,16.234C36.329,17.209 35.851,18 34.745,18L13.278,18C12.175,18 11.694,17.21 12.204,16.234L12.907,14.888Z" style="fill:white;"/>
                </g>
                <g transform="matrix(0.0273933,-2.55896,2.55896,0.0273933,-20.206,19994.4)">
                    <circle cx="7099" cy="798" r="80" style="fill:rgb(63,18,37);"/>
                </g>
                <g transform="matrix(0.0913111,-8.52988,8.52988,0.0913111,2009.4,2052.81)">
                    <path d="M13.011,19L35.011,19L35.011,32.008C35.011,33.108 34.121,34 33.019,34L15.002,34C13.902,34 13.011,33.107 13.011,32.008L13.011,19ZM20.011,22.5C20.011,23.056 20.457,23.5 21.008,23.5L27.014,23.5C27.558,23.5 28.011,23.052 28.011,22.5C28.011,21.944 27.564,21.5 27.014,21.5L21.008,21.5C20.464,21.5 20.011,21.948 20.011,22.5ZM12.907,14.888C13.163,14.397 13.816,14 14.369,14L33.654,14C34.205,14 34.86,14.398 35.116,14.888L35.82,16.234C36.329,17.209 35.851,18 34.745,18L13.278,18C12.175,18 11.694,17.21 12.204,16.234L12.907,14.888Z" style="fill:white;"/>
                </g>
                <g transform="matrix(1.80663,1.81249,-1.81249,1.80663,-9162.58,-12048.9)">
                    <circle cx="7099" cy="798" r="80" style="fill:rgb(244,68,46);"/>
                </g>
                <g transform="matrix(6.0221,6.04164,-6.04164,6.0221,2216.71,1970.04)">
                    <path d="M13.011,19L35.011,19L35.011,32.008C35.011,33.108 34.121,34 33.019,34L15.002,34C13.902,34 13.011,33.107 13.011,32.008L13.011,19ZM20.011,22.5C20.011,23.056 20.457,23.5 21.008,23.5L27.014,23.5C27.558,23.5 28.011,23.052 28.011,22.5C28.011,21.944 27.564,21.5 27.014,21.5L21.008,21.5C20.464,21.5 20.011,21.948 20.011,22.5ZM12.907,14.888C13.163,14.397 13.816,14 14.369,14L33.654,14C34.205,14 34.86,14.398 35.116,14.888L35.82,16.234C36.329,17.209 35.851,18 34.745,18L13.278,18C12.175,18 11.694,17.21 12.204,16.234L12.907,14.888Z" style="fill:white;"/>
                </g>
                <g transform="matrix(-1.1502,0.000955809,-0.000955809,-1.1502,9758.12,2550.11)">
                    <circle cx="7099" cy="798" r="80" style="fill:rgb(123,35,40);"/>
                </g>
                <g transform="matrix(-3.83401,0.00318603,-0.00318603,-3.83401,1684.21,1730.98)">
                    <path d="M13.011,19L35.011,19L35.011,32.008C35.011,33.108 34.121,34 33.019,34L15.002,34C13.902,34 13.011,33.107 13.011,32.008L13.011,19ZM20.011,22.5C20.011,23.056 20.457,23.5 21.008,23.5L27.014,23.5C27.558,23.5 28.011,23.052 28.011,22.5C28.011,21.944 27.564,21.5 27.014,21.5L21.008,21.5C20.464,21.5 20.011,21.948 20.011,22.5ZM12.907,14.888C13.163,14.397 13.816,14 14.369,14L33.654,14C34.205,14 34.86,14.398 35.116,14.888L35.82,16.234C36.329,17.209 35.851,18 34.745,18L13.278,18C12.175,18 11.694,17.21 12.204,16.234L12.907,14.888Z" style="fill:white;"/>
                </g>
                <g transform="matrix(-0.00502919,1.15019,-1.15019,-0.00502919,2555.68,-6106.32)">
                    <circle cx="7099" cy="798" r="80" style="fill:rgb(123,35,40);"/>
                </g>
                <g transform="matrix(-0.016764,3.83397,-3.83397,-0.016764,1694.54,1963.22)">
                    <path d="M13.011,19L35.011,19L35.011,32.008C35.011,33.108 34.121,34 33.019,34L15.002,34C13.902,34 13.011,33.107 13.011,32.008L13.011,19ZM20.011,22.5C20.011,23.056 20.457,23.5 21.008,23.5L27.014,23.5C27.558,23.5 28.011,23.052 28.011,22.5C28.011,21.944 27.564,21.5 27.014,21.5L21.008,21.5C20.464,21.5 20.011,21.948 20.011,22.5ZM12.907,14.888C13.163,14.397 13.816,14 14.369,14L33.654,14C34.205,14 34.86,14.398 35.116,14.888L35.82,16.234C36.329,17.209 35.851,18 34.745,18L13.278,18C12.175,18 11.694,17.21 12.204,16.234L12.907,14.888Z" style="fill:white;"/>
                </g>
                <g transform="matrix(-0.000940057,-1.1502,1.1502,-0.000940057,1100.36,9811.53)">
                    <circle cx="7099" cy="798" r="80" style="fill:rgb(123,35,40);"/>
                </g>
                <g transform="matrix(-0.00313352,-3.83401,3.83401,-0.00313352,1919.6,1737.63)">
                    <path d="M13.011,19L35.011,19L35.011,32.008C35.011,33.108 34.121,34 33.019,34L15.002,34C13.902,34 13.011,33.107 13.011,32.008L13.011,19ZM20.011,22.5C20.011,23.056 20.457,23.5 21.008,23.5L27.014,23.5C27.558,23.5 28.011,23.052 28.011,22.5C28.011,21.944 27.564,21.5 27.014,21.5L21.008,21.5C20.464,21.5 20.011,21.948 20.011,22.5ZM12.907,14.888C13.163,14.397 13.816,14 14.369,14L33.654,14C34.205,14 34.86,14.398 35.116,14.888L35.82,16.234C36.329,17.209 35.851,18 34.745,18L13.278,18C12.175,18 11.694,17.21 12.204,16.234L12.907,14.888Z" style="fill:white;"/>
                </g>
                <g transform="matrix(1.15019,-0.00517565,0.00517565,1.15019,-6157.75,1173.75)">
                    <circle cx="7099" cy="798" r="80" style="fill:rgb(123,35,40);"/>
                </g>
                <g transform="matrix(3.83397,-0.0172522,0.0172522,3.83397,1919.11,1963.26)">
                    <path d="M13.011,19L35.011,19L35.011,32.008C35.011,33.108 34.121,34 33.019,34L15.002,34C13.902,34 13.011,33.107 13.011,32.008L13.011,19ZM20.011,22.5C20.011,23.056 20.457,23.5 21.008,23.5L27.014,23.5C27.558,23.5 28.011,23.052 28.011,22.5C28.011,21.944 27.564,21.5 27.014,21.5L21.008,21.5C20.464,21.5 20.011,21.948 20.011,22.5ZM12.907,14.888C13.163,14.397 13.816,14 14.369,14L33.654,14C34.205,14 34.86,14.398 35.116,14.888L35.82,16.234C36.329,17.209 35.851,18 34.745,18L13.278,18C12.175,18 11.694,17.21 12.204,16.234L12.907,14.888Z" style="fill:white;"/>
                </g>
                <g transform="matrix(1.88219,1.7339,-1.7339,1.88219,-11804.3,-12378.4)">
                    <circle cx="7099" cy="798" r="80" style="fill:rgb(63,18,37);"/>
                </g>
                <g transform="matrix(6.27396,5.77967,-5.77967,6.27396,161.792,1143.15)">
                    <path d="M13.011,19L35.011,19L35.011,32.008C35.011,33.108 34.121,34 33.019,34L15.002,34C13.902,34 13.011,33.107 13.011,32.008L13.011,19ZM20.011,22.5C20.011,23.056 20.457,23.5 21.008,23.5L27.014,23.5C27.558,23.5 28.011,23.052 28.011,22.5C28.011,21.944 27.564,21.5 27.014,21.5L21.008,21.5C20.464,21.5 20.011,21.948 20.011,22.5ZM12.907,14.888C13.163,14.397 13.816,14 14.369,14L33.654,14C34.205,14 34.86,14.398 35.116,14.888L35.82,16.234C36.329,17.209 35.851,18 34.745,18L13.278,18C12.175,18 11.694,17.21 12.204,16.234L12.907,14.888Z" style="fill:white;"/>
                </g>
                <g transform="matrix(-0.00111804,2.55911,-2.55911,-0.00111804,2633.29,-16733.7)">
                    <circle cx="7099" cy="798" r="80" style="fill:rgb(248,113,63);"/>
                </g>
                <g transform="matrix(-0.0037268,8.53036,-8.53036,-0.0037268,788.004,1227.76)">
                    <path d="M13.011,19L35.011,19L35.011,32.008C35.011,33.108 34.121,34 33.019,34L15.002,34C13.902,34 13.011,33.107 13.011,32.008L13.011,19ZM20.011,22.5C20.011,23.056 20.457,23.5 21.008,23.5L27.014,23.5C27.558,23.5 28.011,23.052 28.011,22.5C28.011,21.944 27.564,21.5 27.014,21.5L21.008,21.5C20.464,21.5 20.011,21.948 20.011,22.5ZM12.907,14.888C13.163,14.397 13.816,14 14.369,14L33.654,14C34.205,14 34.86,14.398 35.116,14.888L35.82,16.234C36.329,17.209 35.851,18 34.745,18L13.278,18C12.175,18 11.694,17.21 12.204,16.234L12.907,14.888Z" style="fill:white;"/>
                </g>
                <g transform="matrix(-2.55908,0.0131294,-0.0131294,-2.55908,18351.1,3790.9)">
                    <circle cx="7099" cy="798" r="80" style="fill:rgb(248,113,63);"/>
                </g>
                <g transform="matrix(-8.53025,0.0437646,-0.0437646,-8.53025,379.606,2045.63)">
                    <path d="M13.011,19L35.011,19L35.011,32.008C35.011,33.108 34.121,34 33.019,34L15.002,34C13.902,34 13.011,33.107 13.011,32.008L13.011,19ZM20.011,22.5C20.011,23.056 20.457,23.5 21.008,23.5L27.014,23.5C27.558,23.5 28.011,23.052 28.011,22.5C28.011,21.944 27.564,21.5 27.014,21.5L21.008,21.5C20.464,21.5 20.011,21.948 20.011,22.5ZM12.907,14.888C13.163,14.397 13.816,14 14.369,14L33.654,14C34.205,14 34.86,14.398 35.116,14.888L35.82,16.234C36.329,17.209 35.851,18 34.745,18L13.278,18C12.175,18 11.694,17.21 12.204,16.234L12.907,14.888Z" style="fill:white;"/>
                </g>
                <g transform="matrix(-1.90787,-1.7056,1.7056,-1.90787,12766.1,15472.5)">
                    <circle cx="7099" cy="798" r="80" style="fill:rgb(63,18,37);"/>
                </g>
                <g transform="matrix(-6.35957,-5.68534,5.68534,-6.35957,599.443,2131.1)">
                    <path d="M13.011,19L35.011,19L35.011,32.008C35.011,33.108 34.121,34 33.019,34L15.002,34C13.902,34 13.011,33.107 13.011,32.008L13.011,19ZM20.011,22.5C20.011,23.056 20.457,23.5 21.008,23.5L27.014,23.5C27.558,23.5 28.011,23.052 28.011,22.5C28.011,21.944 27.564,21.5 27.014,21.5L21.008,21.5C20.464,21.5 20.011,21.948 20.011,22.5ZM12.907,14.888C13.163,14.397 13.816,14 14.369,14L33.654,14C34.205,14 34.86,14.398 35.116,14.888L35.82,16.234C36.329,17.209 35.851,18 34.745,18L13.278,18C12.175,18 11.694,17.21 12.204,16.234L12.907,14.888Z" style="fill:white;"/>
                </g>
                <g transform="matrix(1.78142,-1.83727,1.83727,1.78142,-13938.8,13872.6)">
                    <circle cx="7099" cy="798" r="80" style="fill:rgb(63,18,37);"/>
                </g>
                <g transform="matrix(5.93808,-6.12424,6.12424,5.93808,-115.877,2255.96)">
                    <path d="M13.011,19L35.011,19L35.011,32.008C35.011,33.108 34.121,34 33.019,34L15.002,34C13.902,34 13.011,33.107 13.011,32.008L13.011,19ZM20.011,22.5C20.011,23.056 20.457,23.5 21.008,23.5L27.014,23.5C27.558,23.5 28.011,23.052 28.011,22.5C28.011,21.944 27.564,21.5 27.014,21.5L21.008,21.5C20.464,21.5 20.011,21.948 20.011,22.5ZM12.907,14.888C13.163,14.397 13.816,14 14.369,14L33.654,14C34.205,14 34.86,14.398 35.116,14.888L35.82,16.234C36.329,17.209 35.851,18 34.745,18L13.278,18C12.175,18 11.694,17.21 12.204,16.234L12.907,14.888Z" style="fill:white;"/>
                </g>
                <g transform="matrix(2.55911,0,0,2.55911,-17584,209.248)">
                    <circle cx="7099" cy="798" r="80" style="fill:rgb(248,113,63);"/>
                </g>
                <g transform="matrix(8.53036,0,0,8.53036,378.317,2046.69)">
                    <path d="M13.011,19L35.011,19L35.011,32.008C35.011,33.108 34.121,34 33.019,34L15.002,34C13.902,34 13.011,33.107 13.011,32.008L13.011,19ZM20.011,22.5C20.011,23.056 20.457,23.5 21.008,23.5L27.014,23.5C27.558,23.5 28.011,23.052 28.011,22.5C28.011,21.944 27.564,21.5 27.014,21.5L21.008,21.5C20.464,21.5 20.011,21.948 20.011,22.5ZM12.907,14.888C13.163,14.397 13.816,14 14.369,14L33.654,14C34.205,14 34.86,14.398 35.116,14.888L35.82,16.234C36.329,17.209 35.851,18 34.745,18L13.278,18C12.175,18 11.694,17.21 12.204,16.234L12.907,14.888Z" style="fill:white;"/>
                </g>
                <g transform="matrix(-1.77478,1.84369,-1.84369,-1.77478,15063.1,-10239.6)">
                    <circle cx="7099" cy="798" r="80" style="fill:rgb(63,18,37);"/>
                </g>
                <g transform="matrix(-5.91592,6.14565,-6.14565,-5.91592,1282.19,1426.92)">
                    <path d="M13.011,19L35.011,19L35.011,32.008C35.011,33.108 34.121,34 33.019,34L15.002,34C13.902,34 13.011,33.107 13.011,32.008L13.011,19ZM20.011,22.5C20.011,23.056 20.457,23.5 21.008,23.5L27.014,23.5C27.558,23.5 28.011,23.052 28.011,22.5C28.011,21.944 27.564,21.5 27.014,21.5L21.008,21.5C20.464,21.5 20.011,21.948 20.011,22.5ZM12.907,14.888C13.163,14.397 13.816,14 14.369,14L33.654,14C34.205,14 34.86,14.398 35.116,14.888L35.82,16.234C36.329,17.209 35.851,18 34.745,18L13.278,18C12.175,18 11.694,17.21 12.204,16.234L12.907,14.888Z" style="fill:white;"/>
                </g>
                <g transform="matrix(0.0273933,-2.55896,2.55896,0.0273933,-1243.87,19986.2)">
                    <circle cx="7099" cy="798" r="80" style="fill:rgb(248,113,63);"/>
                </g>
                <g transform="matrix(0.0913111,-8.52988,8.52988,0.0913111,785.734,2044.59)">
                    <path d="M13.011,19L35.011,19L35.011,32.008C35.011,33.108 34.121,34 33.019,34L15.002,34C13.902,34 13.011,33.107 13.011,32.008L13.011,19ZM20.011,22.5C20.011,23.056 20.457,23.5 21.008,23.5L27.014,23.5C27.558,23.5 28.011,23.052 28.011,22.5C28.011,21.944 27.564,21.5 27.014,21.5L21.008,21.5C20.464,21.5 20.011,21.948 20.011,22.5ZM12.907,14.888C13.163,14.397 13.816,14 14.369,14L33.654,14C34.205,14 34.86,14.398 35.116,14.888L35.82,16.234C36.329,17.209 35.851,18 34.745,18L13.278,18C12.175,18 11.694,17.21 12.204,16.234L12.907,14.888Z" style="fill:white;"/>
                </g>
                <g transform="matrix(1.80663,1.81249,-1.81249,1.80663,-10386.3,-12057.2)">
                    <circle cx="7099" cy="798" r="80" style="fill:rgb(63,18,37);"/>
                </g>
                <g transform="matrix(6.0221,6.04164,-6.04164,6.0221,993.002,1961.82)">
                    <path d="M13.011,19L35.011,19L35.011,32.008C35.011,33.108 34.121,34 33.019,34L15.002,34C13.902,34 13.011,33.107 13.011,32.008L13.011,19ZM20.011,22.5C20.011,23.056 20.457,23.5 21.008,23.5L27.014,23.5C27.558,23.5 28.011,23.052 28.011,22.5C28.011,21.944 27.564,21.5 27.014,21.5L21.008,21.5C20.464,21.5 20.011,21.948 20.011,22.5ZM12.907,14.888C13.163,14.397 13.816,14 14.369,14L33.654,14C34.205,14 34.86,14.398 35.116,14.888L35.82,16.234C36.329,17.209 35.851,18 34.745,18L13.278,18C12.175,18 11.694,17.21 12.204,16.234L12.907,14.888Z" style="fill:white;"/>
                </g>
                <g transform="matrix(-1.1502,0.000955809,-0.000955809,-1.1502,8534.45,2541.89)">
                    <circle cx="7099" cy="798" r="80" style="fill:rgb(123,35,40);"/>
                </g>
                <g transform="matrix(-3.83401,0.00318603,-0.00318603,-3.83401,460.545,1722.75)">
                    <path d="M13.011,19L35.011,19L35.011,32.008C35.011,33.108 34.121,34 33.019,34L15.002,34C13.902,34 13.011,33.107 13.011,32.008L13.011,19ZM20.011,22.5C20.011,23.056 20.457,23.5 21.008,23.5L27.014,23.5C27.558,23.5 28.011,23.052 28.011,22.5C28.011,21.944 27.564,21.5 27.014,21.5L21.008,21.5C20.464,21.5 20.011,21.948 20.011,22.5ZM12.907,14.888C13.163,14.397 13.816,14 14.369,14L33.654,14C34.205,14 34.86,14.398 35.116,14.888L35.82,16.234C36.329,17.209 35.851,18 34.745,18L13.278,18C12.175,18 11.694,17.21 12.204,16.234L12.907,14.888Z" style="fill:white;"/>
                </g>
                <g transform="matrix(-0.00502919,1.15019,-1.15019,-0.00502919,1332.01,-6114.55)">
                    <circle cx="7099" cy="798" r="80" style="fill:rgb(123,35,40);"/>
                </g>
                <g transform="matrix(-0.016764,3.83397,-3.83397,-0.016764,470.875,1954.99)">
                    <path d="M13.011,19L35.011,19L35.011,32.008C35.011,33.108 34.121,34 33.019,34L15.002,34C13.902,34 13.011,33.107 13.011,32.008L13.011,19ZM20.011,22.5C20.011,23.056 20.457,23.5 21.008,23.5L27.014,23.5C27.558,23.5 28.011,23.052 28.011,22.5C28.011,21.944 27.564,21.5 27.014,21.5L21.008,21.5C20.464,21.5 20.011,21.948 20.011,22.5ZM12.907,14.888C13.163,14.397 13.816,14 14.369,14L33.654,14C34.205,14 34.86,14.398 35.116,14.888L35.82,16.234C36.329,17.209 35.851,18 34.745,18L13.278,18C12.175,18 11.694,17.21 12.204,16.234L12.907,14.888Z" style="fill:white;"/>
                </g>
                <g transform="matrix(-0.000940057,-1.1502,1.1502,-0.000940057,-123.311,9803.3)">
                    <circle cx="7099" cy="798" r="80" style="fill:rgb(123,35,40);"/>
                </g>
                <g transform="matrix(-0.00313352,-3.83401,3.83401,-0.00313352,695.936,1729.41)">
                    <path d="M13.011,19L35.011,19L35.011,32.008C35.011,33.108 34.121,34 33.019,34L15.002,34C13.902,34 13.011,33.107 13.011,32.008L13.011,19ZM20.011,22.5C20.011,23.056 20.457,23.5 21.008,23.5L27.014,23.5C27.558,23.5 28.011,23.052 28.011,22.5C28.011,21.944 27.564,21.5 27.014,21.5L21.008,21.5C20.464,21.5 20.011,21.948 20.011,22.5ZM12.907,14.888C13.163,14.397 13.816,14 14.369,14L33.654,14C34.205,14 34.86,14.398 35.116,14.888L35.82,16.234C36.329,17.209 35.851,18 34.745,18L13.278,18C12.175,18 11.694,17.21 12.204,16.234L12.907,14.888Z" style="fill:white;"/>
                </g>
                <g transform="matrix(1.15019,-0.00517565,0.00517565,1.15019,-7381.42,1165.52)">
                    <circle cx="7099" cy="798" r="80" style="fill:rgb(123,35,40);"/>
                </g>
                <g transform="matrix(3.83397,-0.0172522,0.0172522,3.83397,695.44,1955.03)">
                    <path d="M13.011,19L35.011,19L35.011,32.008C35.011,33.108 34.121,34 33.019,34L15.002,34C13.902,34 13.011,33.107 13.011,32.008L13.011,19ZM20.011,22.5C20.011,23.056 20.457,23.5 21.008,23.5L27.014,23.5C27.558,23.5 28.011,23.052 28.011,22.5C28.011,21.944 27.564,21.5 27.014,21.5L21.008,21.5C20.464,21.5 20.011,21.948 20.011,22.5ZM12.907,14.888C13.163,14.397 13.816,14 14.369,14L33.654,14C34.205,14 34.86,14.398 35.116,14.888L35.82,16.234C36.329,17.209 35.851,18 34.745,18L13.278,18C12.175,18 11.694,17.21 12.204,16.234L12.907,14.888Z" style="fill:white;"/>
                </g>
                <g transform="matrix(1.88219,1.7339,-1.7339,1.88219,-11804.3,-12378.4)">
                    <circle cx="7099" cy="798" r="80" style="fill:rgb(63,18,37);"/>
                </g>
                <g transform="matrix(6.27396,5.77967,-5.77967,6.27396,161.792,1143.15)">
                    <path d="M13.011,19L35.011,19L35.011,32.008C35.011,33.108 34.121,34 33.019,34L15.002,34C13.902,34 13.011,33.107 13.011,32.008L13.011,19ZM20.011,22.5C20.011,23.056 20.457,23.5 21.008,23.5L27.014,23.5C27.558,23.5 28.011,23.052 28.011,22.5C28.011,21.944 27.564,21.5 27.014,21.5L21.008,21.5C20.464,21.5 20.011,21.948 20.011,22.5ZM12.907,14.888C13.163,14.397 13.816,14 14.369,14L33.654,14C34.205,14 34.86,14.398 35.116,14.888L35.82,16.234C36.329,17.209 35.851,18 34.745,18L13.278,18C12.175,18 11.694,17.21 12.204,16.234L12.907,14.888Z" style="fill:white;"/>
                </g>
                <g transform="matrix(-0.00111804,2.55911,-2.55911,-0.00111804,2633.29,-16733.7)">
                    <circle cx="7099" cy="798" r="80" style="fill:rgb(248,113,63);"/>
                </g>
                <g transform="matrix(-0.0037268,8.53036,-8.53036,-0.0037268,788.004,1227.76)">
                    <path d="M13.011,19L35.011,19L35.011,32.008C35.011,33.108 34.121,34 33.019,34L15.002,34C13.902,34 13.011,33.107 13.011,32.008L13.011,19ZM20.011,22.5C20.011,23.056 20.457,23.5 21.008,23.5L27.014,23.5C27.558,23.5 28.011,23.052 28.011,22.5C28.011,21.944 27.564,21.5 27.014,21.5L21.008,21.5C20.464,21.5 20.011,21.948 20.011,22.5ZM12.907,14.888C13.163,14.397 13.816,14 14.369,14L33.654,14C34.205,14 34.86,14.398 35.116,14.888L35.82,16.234C36.329,17.209 35.851,18 34.745,18L13.278,18C12.175,18 11.694,17.21 12.204,16.234L12.907,14.888Z" style="fill:white;"/>
                </g>
                <g transform="matrix(-2.55908,0.0131294,-0.0131294,-2.55908,18351.1,3790.9)">
                    <circle cx="7099" cy="798" r="80" style="fill:rgb(248,113,63);"/>
                </g>
                <g transform="matrix(-8.53025,0.0437646,-0.0437646,-8.53025,379.606,2045.63)">
                    <path d="M13.011,19L35.011,19L35.011,32.008C35.011,33.108 34.121,34 33.019,34L15.002,34C13.902,34 13.011,33.107 13.011,32.008L13.011,19ZM20.011,22.5C20.011,23.056 20.457,23.5 21.008,23.5L27.014,23.5C27.558,23.5 28.011,23.052 28.011,22.5C28.011,21.944 27.564,21.5 27.014,21.5L21.008,21.5C20.464,21.5 20.011,21.948 20.011,22.5ZM12.907,14.888C13.163,14.397 13.816,14 14.369,14L33.654,14C34.205,14 34.86,14.398 35.116,14.888L35.82,16.234C36.329,17.209 35.851,18 34.745,18L13.278,18C12.175,18 11.694,17.21 12.204,16.234L12.907,14.888Z" style="fill:white;"/>
                </g>
                <g transform="matrix(-1.90787,-1.7056,1.7056,-1.90787,12766.1,15472.5)">
                    <circle cx="7099" cy="798" r="80" style="fill:rgb(63,18,37);"/>
                </g>
                <g transform="matrix(-6.35957,-5.68534,5.68534,-6.35957,599.443,2131.1)">
                    <path d="M13.011,19L35.011,19L35.011,32.008C35.011,33.108 34.121,34 33.019,34L15.002,34C13.902,34 13.011,33.107 13.011,32.008L13.011,19ZM20.011,22.5C20.011,23.056 20.457,23.5 21.008,23.5L27.014,23.5C27.558,23.5 28.011,23.052 28.011,22.5C28.011,21.944 27.564,21.5 27.014,21.5L21.008,21.5C20.464,21.5 20.011,21.948 20.011,22.5ZM12.907,14.888C13.163,14.397 13.816,14 14.369,14L33.654,14C34.205,14 34.86,14.398 35.116,14.888L35.82,16.234C36.329,17.209 35.851,18 34.745,18L13.278,18C12.175,18 11.694,17.21 12.204,16.234L12.907,14.888Z" style="fill:white;"/>
                </g>
                <g transform="matrix(1.78142,-1.83727,1.83727,1.78142,-13938.8,13872.6)">
                    <circle cx="7099" cy="798" r="80" style="fill:rgb(63,18,37);"/>
                </g>
                <g transform="matrix(5.93808,-6.12424,6.12424,5.93808,-115.877,2255.96)">
                    <path d="M13.011,19L35.011,19L35.011,32.008C35.011,33.108 34.121,34 33.019,34L15.002,34C13.902,34 13.011,33.107 13.011,32.008L13.011,19ZM20.011,22.5C20.011,23.056 20.457,23.5 21.008,23.5L27.014,23.5C27.558,23.5 28.011,23.052 28.011,22.5C28.011,21.944 27.564,21.5 27.014,21.5L21.008,21.5C20.464,21.5 20.011,21.948 20.011,22.5ZM12.907,14.888C13.163,14.397 13.816,14 14.369,14L33.654,14C34.205,14 34.86,14.398 35.116,14.888L35.82,16.234C36.329,17.209 35.851,18 34.745,18L13.278,18C12.175,18 11.694,17.21 12.204,16.234L12.907,14.888Z" style="fill:white;"/>
                </g>
                <g transform="matrix(2.55911,0,0,2.55911,-17584,209.248)">
                    <circle cx="7099" cy="798" r="80" style="fill:rgb(248,113,63);"/>
                </g>
                <g transform="matrix(8.53036,0,0,8.53036,378.317,2046.69)">
                    <path d="M13.011,19L35.011,19L35.011,32.008C35.011,33.108 34.121,34 33.019,34L15.002,34C13.902,34 13.011,33.107 13.011,32.008L13.011,19ZM20.011,22.5C20.011,23.056 20.457,23.5 21.008,23.5L27.014,23.5C27.558,23.5 28.011,23.052 28.011,22.5C28.011,21.944 27.564,21.5 27.014,21.5L21.008,21.5C20.464,21.5 20.011,21.948 20.011,22.5ZM12.907,14.888C13.163,14.397 13.816,14 14.369,14L33.654,14C34.205,14 34.86,14.398 35.116,14.888L35.82,16.234C36.329,17.209 35.851,18 34.745,18L13.278,18C12.175,18 11.694,17.21 12.204,16.234L12.907,14.888Z" style="fill:white;"/>
                </g>
                <g transform="matrix(-1.77478,1.84369,-1.84369,-1.77478,15063.1,-10239.6)">
                    <circle cx="7099" cy="798" r="80" style="fill:rgb(63,18,37);"/>
                </g>
                <g transform="matrix(-5.91592,6.14565,-6.14565,-5.91592,1282.19,1426.92)">
                    <path d="M13.011,19L35.011,19L35.011,32.008C35.011,33.108 34.121,34 33.019,34L15.002,34C13.902,34 13.011,33.107 13.011,32.008L13.011,19ZM20.011,22.5C20.011,23.056 20.457,23.5 21.008,23.5L27.014,23.5C27.558,23.5 28.011,23.052 28.011,22.5C28.011,21.944 27.564,21.5 27.014,21.5L21.008,21.5C20.464,21.5 20.011,21.948 20.011,22.5ZM12.907,14.888C13.163,14.397 13.816,14 14.369,14L33.654,14C34.205,14 34.86,14.398 35.116,14.888L35.82,16.234C36.329,17.209 35.851,18 34.745,18L13.278,18C12.175,18 11.694,17.21 12.204,16.234L12.907,14.888Z" style="fill:white;"/>
                </g>
                <g transform="matrix(0.0273933,-2.55896,2.55896,0.0273933,-1243.87,19986.2)">
                    <circle cx="7099" cy="798" r="80" style="fill:rgb(248,113,63);"/>
                </g>
                <g transform="matrix(0.0913111,-8.52988,8.52988,0.0913111,785.734,2044.59)">
                    <path d="M13.011,19L35.011,19L35.011,32.008C35.011,33.108 34.121,34 33.019,34L15.002,34C13.902,34 13.011,33.107 13.011,32.008L13.011,19ZM20.011,22.5C20.011,23.056 20.457,23.5 21.008,23.5L27.014,23.5C27.558,23.5 28.011,23.052 28.011,22.5C28.011,21.944 27.564,21.5 27.014,21.5L21.008,21.5C20.464,21.5 20.011,21.948 20.011,22.5ZM12.907,14.888C13.163,14.397 13.816,14 14.369,14L33.654,14C34.205,14 34.86,14.398 35.116,14.888L35.82,16.234C36.329,17.209 35.851,18 34.745,18L13.278,18C12.175,18 11.694,17.21 12.204,16.234L12.907,14.888Z" style="fill:white;"/>
                </g>
                <g transform="matrix(1.80663,1.81249,-1.81249,1.80663,-10386.3,-12057.2)">
                    <circle cx="7099" cy="798" r="80" style="fill:rgb(63,18,37);"/>
                </g>
                <g transform="matrix(6.0221,6.04164,-6.04164,6.0221,993.002,1961.82)">
                    <path d="M13.011,19L35.011,19L35.011,32.008C35.011,33.108 34.121,34 33.019,34L15.002,34C13.902,34 13.011,33.107 13.011,32.008L13.011,19ZM20.011,22.5C20.011,23.056 20.457,23.5 21.008,23.5L27.014,23.5C27.558,23.5 28.011,23.052 28.011,22.5C28.011,21.944 27.564,21.5 27.014,21.5L21.008,21.5C20.464,21.5 20.011,21.948 20.011,22.5ZM12.907,14.888C13.163,14.397 13.816,14 14.369,14L33.654,14C34.205,14 34.86,14.398 35.116,14.888L35.82,16.234C36.329,17.209 35.851,18 34.745,18L13.278,18C12.175,18 11.694,17.21 12.204,16.234L12.907,14.888Z" style="fill:white;"/>
                </g>
                <g transform="matrix(-1.1502,0.000955809,-0.000955809,-1.1502,8534.45,2541.89)">
                    <circle cx="7099" cy="798" r="80" style="fill:rgb(123,35,40);"/>
                </g>
                <g transform="matrix(-3.83401,0.00318603,-0.00318603,-3.83401,460.545,1722.75)">
                    <path d="M13.011,19L35.011,19L35.011,32.008C35.011,33.108 34.121,34 33.019,34L15.002,34C13.902,34 13.011,33.107 13.011,32.008L13.011,19ZM20.011,22.5C20.011,23.056 20.457,23.5 21.008,23.5L27.014,23.5C27.558,23.5 28.011,23.052 28.011,22.5C28.011,21.944 27.564,21.5 27.014,21.5L21.008,21.5C20.464,21.5 20.011,21.948 20.011,22.5ZM12.907,14.888C13.163,14.397 13.816,14 14.369,14L33.654,14C34.205,14 34.86,14.398 35.116,14.888L35.82,16.234C36.329,17.209 35.851,18 34.745,18L13.278,18C12.175,18 11.694,17.21 12.204,16.234L12.907,14.888Z" style="fill:white;"/>
                </g>
                <g transform="matrix(-0.00502919,1.15019,-1.15019,-0.00502919,1332.01,-6114.55)">
                    <circle cx="7099" cy="798" r="80" style="fill:rgb(123,35,40);"/>
                </g>
                <g transform="matrix(-0.016764,3.83397,-3.83397,-0.016764,470.875,1954.99)">
                    <path d="M13.011,19L35.011,19L35.011,32.008C35.011,33.108 34.121,34 33.019,34L15.002,34C13.902,34 13.011,33.107 13.011,32.008L13.011,19ZM20.011,22.5C20.011,23.056 20.457,23.5 21.008,23.5L27.014,23.5C27.558,23.5 28.011,23.052 28.011,22.5C28.011,21.944 27.564,21.5 27.014,21.5L21.008,21.5C20.464,21.5 20.011,21.948 20.011,22.5ZM12.907,14.888C13.163,14.397 13.816,14 14.369,14L33.654,14C34.205,14 34.86,14.398 35.116,14.888L35.82,16.234C36.329,17.209 35.851,18 34.745,18L13.278,18C12.175,18 11.694,17.21 12.204,16.234L12.907,14.888Z" style="fill:white;"/>
                </g>
                <g transform="matrix(-0.000940057,-1.1502,1.1502,-0.000940057,-123.311,9803.3)">
                    <circle cx="7099" cy="798" r="80" style="fill:rgb(123,35,40);"/>
                </g>
                <g transform="matrix(-0.00313352,-3.83401,3.83401,-0.00313352,695.936,1729.41)">
                    <path d="M13.011,19L35.011,19L35.011,32.008C35.011,33.108 34.121,34 33.019,34L15.002,34C13.902,34 13.011,33.107 13.011,32.008L13.011,19ZM20.011,22.5C20.011,23.056 20.457,23.5 21.008,23.5L27.014,23.5C27.558,23.5 28.011,23.052 28.011,22.5C28.011,21.944 27.564,21.5 27.014,21.5L21.008,21.5C20.464,21.5 20.011,21.948 20.011,22.5ZM12.907,14.888C13.163,14.397 13.816,14 14.369,14L33.654,14C34.205,14 34.86,14.398 35.116,14.888L35.82,16.234C36.329,17.209 35.851,18 34.745,18L13.278,18C12.175,18 11.694,17.21 12.204,16.234L12.907,14.888Z" style="fill:white;"/>
                </g>
                <g transform="matrix(1.15019,-0.00517565,0.00517565,1.15019,-7381.42,1165.52)">
                    <circle cx="7099" cy="798" r="80" style="fill:rgb(123,35,40);"/>
                </g>
                <g transform="matrix(3.83397,-0.0172522,0.0172522,3.83397,695.44,1955.03)">
                    <path d="M13.011,19L35.011,19L35.011,32.008C35.011,33.108 34.121,34 33.019,34L15.002,34C13.902,34 13.011,33.107 13.011,32.008L13.011,19ZM20.011,22.5C20.011,23.056 20.457,23.5 21.008,23.5L27.014,23.5C27.558,23.5 28.011,23.052 28.011,22.5C28.011,21.944 27.564,21.5 27.014,21.5L21.008,21.5C20.464,21.5 20.011,21.948 20.011,22.5ZM12.907,14.888C13.163,14.397 13.816,14 14.369,14L33.654,14C34.205,14 34.86,14.398 35.116,14.888L35.82,16.234C36.329,17.209 35.851,18 34.745,18L13.278,18C12.175,18 11.694,17.21 12.204,16.234L12.907,14.888Z" style="fill:white;"/>
                </g>
            </g>
        </g>
    </g>
</svg>
