<?xml version="1.0" encoding="UTF-8" standalone="no"?>
<!DOCTYPE svg PUBLIC "-//W3C//DTD SVG 1.1//EN" "http://www.w3.org/Graphics/SVG/1.1/DTD/svg11.dtd">
<svg width="100%" height="100%" viewBox="0 0 40 40" version="1.1" xmlns="http://www.w3.org/2000/svg" xmlns:xlink="http://www.w3.org/1999/xlink" xml:space="preserve" xmlns:serif="http://www.serif.com/" style="fill-rule:evenodd;clip-rule:evenodd;stroke-linejoin:round;stroke-miterlimit:2;">
    <g transform="matrix(0.694444,0,0,0.694444,20,20)">
        <g id="logout_black_48dp.svg" transform="matrix(1,0,0,1,-24,-24)">
            <g>
                <rect x="0" y="0" width="48" height="48" style="fill:none;fill-rule:nonzero;"/>
            </g>
            <g>
                <path d="M34,16L31.18,18.82L34.34,22L18,22L18,26L34.34,26L31.18,29.16L34,32L42,24L34,16ZM10,10L24,10L24,6L10,6C7.8,6 6,7.8 6,10L6,38C6,40.2 7.8,42 10,42L24,42L24,38L10,38L10,10Z" style="fill:rgb(244,68,46);fill-rule:nonzero;"/>
            </g>
        </g>
        <g id="logout_black_48dp.svg1" serif:id="logout_black_48dp.svg">
        </g>
    </g>
</svg>
