<?xml version="1.0" encoding="UTF-8" standalone="no"?>
<!DOCTYPE svg PUBLIC "-//W3C//DTD SVG 1.1//EN" "http://www.w3.org/Graphics/SVG/1.1/DTD/svg11.dtd">
<svg width="100%" height="100%" viewBox="0 0 3840 2160" version="1.1" xmlns="http://www.w3.org/2000/svg" xmlns:xlink="http://www.w3.org/1999/xlink" xml:space="preserve" xmlns:serif="http://www.serif.com/" style="fill-rule:evenodd;clip-rule:evenodd;stroke-linejoin:round;stroke-miterlimit:2;">
    <path d="M-83.526,1369.73C-229.683,1509.43 -107.65,1808.56 121.993,1943.82C262.415,2026.53 490.844,1954.95 583.078,2020.27C969.121,2293.66 1097.79,1840.17 1265.74,1871.69C2369.43,2078.81 3462.25,1217.85 2378.09,1080C2203.5,1057.8 2374.07,735.822 2458.4,630.845C2542.73,525.869 2708.38,549.862 2884.07,450.14C2955.52,409.58 2973.59,264.534 3021.55,200.965C3076.76,127.784 3233.42,77.243 3311.74,0C3396.67,-83.77 2343.81,-46.442 2277.7,-67.884C-1983.9,-1450.04 240.481,1060.04 -83.526,1369.73Z" style="fill:rgb(244,68,46);"/>
    <g id="Search_svg_Icon.svg" transform="matrix(1.83812,0,0,1.83812,2526.78,1124.17)">
        <g transform="matrix(1,0,0,1,-552.234,-398.758)">
            <clipPath id="_clip1">
                <rect x="0" y="0" width="1104.47" height="797.515"/>
            </clipPath>
            <g clip-path="url(#_clip1)">
                <rect x="959.049" y="388.464" width="9.832" height="388.345" style="fill:rgb(63,61,86);"/>
                <g transform="matrix(1,0,0,1,-47.7657,-51.2425)">
                    <path d="M1107.38,489.196C1108.01,624.991 1012.47,735.517 1012.47,735.517C1012.47,735.517 915.914,625.876 915.288,490.081C914.662,354.287 1010.2,243.761 1010.2,243.761C1010.2,243.761 1106.75,353.401 1107.38,489.196Z" style="fill:rgb(63,61,86);fill-rule:nonzero;"/>
                </g>
                <rect x="767.244" y="571.186" width="5.057" height="199.735" style="fill:rgb(63,61,86);"/>
                <g transform="matrix(1,0,0,1,-47.7657,-51.2425)">
                    <path d="M866.733,647.882C867.055,717.724 817.917,774.571 817.917,774.571C817.917,774.571 768.257,718.18 767.935,648.337C767.613,578.495 816.751,521.649 816.751,521.649C816.751,521.649 866.411,578.04 866.733,647.882Z" style="fill:rgb(63,61,86);fill-rule:nonzero;"/>
                </g>
                <ellipse cx="871.969" cy="776.515" rx="137" ry="21" style="fill:rgb(63,61,86);"/>
                <g transform="matrix(1,0,0,1,-47.7657,-51.2425)">
                    <path d="M931.034,338.324C919.427,318.712 896.463,317.798 896.463,317.798C896.463,317.798 874.087,314.936 859.732,344.806C846.353,372.646 827.888,399.527 856.76,406.045L861.975,389.813L865.205,407.253C869.315,407.549 873.439,407.619 877.558,407.464C908.477,406.466 937.923,407.756 936.975,396.661C935.715,381.911 942.202,357.194 931.034,338.324Z" style="fill:rgb(47,46,65);fill-rule:nonzero;"/>
                </g>
                <g transform="matrix(1,0,0,1,-47.7657,-51.2425)">
                    <path d="M889.234,375.258C889.234,375.258 904.234,396.258 895.234,413.258C886.234,430.258 916.234,448.258 916.234,448.258L938.234,400.258C938.234,400.258 912.234,383.258 919.234,367.258L889.234,375.258Z" style="fill:rgb(251,190,190);fill-rule:nonzero;"/>
                </g>
                <circle cx="851.469" cy="307.015" r="26" style="fill:rgb(251,190,190);"/>
                <g transform="matrix(1,0,0,1,-47.7657,-51.2425)">
                    <path d="M809.255,388.313L830.983,360.28C830.983,360.28 838.633,330.895 849.714,332.384C860.795,333.874 845.338,367.624 845.338,367.624L823.748,398.655L809.255,388.313Z" style="fill:rgb(251,190,190);fill-rule:nonzero;"/>
                </g>
                <path d="M871.469,710.015L878.469,747.015L893.469,751.015L889.469,707.015L871.469,710.015Z" style="fill:rgb(251,190,190);fill-rule:nonzero;"/>
                <path d="M1022.47,670.015L1049.47,707.015L1060.47,712.015L1069.47,697.015L1042.47,662.015L1022.47,670.015Z" style="fill:rgb(251,190,190);fill-rule:nonzero;"/>
                <g transform="matrix(1,0,0,1,-47.7657,-51.2425)">
                    <path d="M913.234,432.258L896.553,410.298C896.553,410.298 864.234,416.258 861.234,419.258C858.234,422.258 869.234,477.258 869.234,477.258C869.234,477.258 871.234,492.258 880.234,500.258L889.234,506.258L963.234,491.258L966.017,458.332C968.065,434.093 959.786,410.083 943.234,392.258L930.359,394.018L913.234,432.258Z" style="fill:rgb(87,90,137);fill-rule:nonzero;"/>
                </g>
                <g transform="matrix(1,0,0,1,-47.7657,-51.2425)">
                    <path d="M865.234,421.258L860.234,419.258L837.234,417.258C837.234,417.258 829.234,415.258 831.234,411.258C833.234,407.258 835.234,406.258 831.234,405.258C827.234,404.258 826.234,403.258 827.234,400.258C828.234,397.258 834.234,391.258 834.234,391.258L817.234,377.258C817.234,377.258 816.314,377.908 814.827,379.112C806.387,385.946 779.68,410.602 799.234,435.258C822.234,464.258 849.234,481.258 871.234,475.258L865.234,421.258Z" style="fill:rgb(87,90,137);fill-rule:nonzero;"/>
                </g>
                <g transform="matrix(1,0,0,1,-47.7657,-51.2425)">
                    <path d="M887.234,501.258L887.234,515.258C887.234,515.258 878.234,532.258 881.234,548.258C884.234,564.258 885.234,572.258 885.234,572.258C885.561,585.865 887.92,599.348 892.234,612.258C899.234,632.258 876.234,763.258 905.234,765.258C934.234,767.258 950.234,769.258 959.234,759.258C968.234,749.258 944.234,577.258 944.234,577.258C944.234,577.258 1026.23,748.258 1043.23,741.258C1060.23,734.258 1103.23,718.258 1098.23,709.258C1093.23,700.258 967.234,500.258 967.234,500.258L963.234,491.258L887.234,501.258Z" style="fill:rgb(47,46,65);fill-rule:nonzero;"/>
                </g>
                <g transform="matrix(1,0,0,1,-47.7657,-51.2425)">
                    <path d="M935.234,791.258C935.234,791.258 919.234,790.258 919.234,795.258C919.234,800.258 911.234,817.258 911.234,817.258C911.234,817.258 905.234,837.258 921.234,835.258C937.234,833.258 947.234,815.258 947.234,815.258L943.234,796.258L935.234,791.258Z" style="fill:rgb(47,46,65);fill-rule:nonzero;"/>
                </g>
                <g transform="matrix(1,0,0,1,-47.7657,-51.2425)">
                    <path d="M1102.23,756.258C1102.23,756.258 1088.23,747.258 1089.23,753.258C1090.23,759.258 1091.23,775.258 1098.23,776.258C1105.23,777.258 1126.23,783.258 1127.23,785.258C1128.23,787.258 1152.23,795.258 1152.23,782.258C1152.23,769.258 1137.23,759.258 1137.23,759.258L1120.23,746.258C1120.23,746.258 1109.23,745.258 1107.23,752.258C1105.23,759.258 1102.23,756.258 1102.23,756.258Z" style="fill:rgb(47,46,65);fill-rule:nonzero;"/>
                </g>
                <circle cx="851.508" cy="266.654" r="16.604" style="fill:rgb(47,46,65);"/>
                <g transform="matrix(1,0,0,1,-47.7657,-51.2425)">
                    <path d="M880.922,313.528C880.923,305.077 887.375,297.907 895.778,297.017C895.198,296.956 894.614,296.924 894.031,296.924C884.922,296.924 877.427,304.419 877.427,313.528C877.427,322.636 884.922,330.131 894.031,330.131C894.614,330.131 895.198,330.099 895.778,330.038C887.375,329.148 880.923,321.978 880.922,313.528Z" style="fill:rgb(47,46,65);fill-rule:nonzero;"/>
                </g>
                <path d="M878.136,285.191L855.45,273.307L824.12,278.169L817.638,306.797L833.774,306.176L838.282,295.659L838.282,306.003L845.727,305.717L850.048,288.972L852.749,306.797L879.217,306.257L878.136,285.191Z" style="fill:rgb(47,46,65);fill-rule:nonzero;"/>
                <g transform="matrix(1,0,0,1,-47.7657,-51.2425)">
                    <path d="M924.544,503.574L889.556,504.52C889.556,504.52 859.702,510.329 861.377,498.279C863.052,486.23 892.177,490.444 892.177,490.444L924.057,485.581L924.544,503.574Z" style="fill:rgb(251,190,190);fill-rule:nonzero;"/>
                </g>
                <g transform="matrix(1,0,0,1,-47.7657,-51.2425)">
                    <path d="M952.226,390.562C955.843,390.015 959.357,392.203 960.461,395.69C967.311,417.274 988.412,489.504 967.447,499.413C942.753,511.085 924.733,510.572 924.733,510.572L915.087,486.824L923.868,478.583L933.242,418.308L937.734,392.758L952.226,390.562Z" style="fill:rgb(87,90,137);fill-rule:nonzero;"/>
                </g>
                <path d="M897.969,379.515L893.969,419.515L858.969,434.515L897.969,425.515L897.969,379.515Z" style="fill-opacity:0.4;fill-rule:nonzero;"/>
                <g transform="matrix(1,0,0,1,-47.7657,-51.2425)">
                    <path d="M756.98,298.705C768.25,301.691 778.008,308.78 784.332,318.575L787.603,323.64L787.768,323.85L845.153,340.641C847.327,341.278 848.61,343.571 848.014,345.757L843.559,362.092C843.064,363.906 841.404,365.174 839.523,365.174C839.143,365.174 838.764,365.122 838.397,365.019L780.998,348.975L780.996,348.977L775.232,351.157C764.618,355.169 752.971,355.565 742.11,352.282L756.98,298.705Z" style="fill:rgb(63,61,86);fill-rule:nonzero;"/>
                </g>
                <g transform="matrix(0.280833,-0.959757,0.959757,0.280833,205.175,974.784)">
                    <ellipse cx="811.107" cy="344.233" rx="3.504" ry="6.57" style="fill:rgb(87,90,137);"/>
                </g>
                <circle cx="766.716" cy="294.14" r="2.409" style="fill:rgb(63,61,86);"/>
                <g transform="matrix(0.308449,-0.951241,0.951241,0.308449,160.84,887.154)">
                    <ellipse cx="749.694" cy="325.728" rx="28.09" ry="12.703" style="fill:rgb(252,158,79);"/>
                </g>
                <g transform="matrix(1,0,0,1,-47.7657,-51.2425)">
                    <path d="M759.994,329.124C764.605,314.904 763.351,301.652 757.283,298.769C757.648,298.814 758.008,298.894 758.358,299.007C765.032,301.171 766.563,314.888 761.777,329.646C756.992,344.403 747.703,354.612 741.029,352.448C740.788,352.369 740.551,352.274 740.321,352.164C746.886,353 755.461,343.104 759.994,329.124Z" style="fill-opacity:0.4;fill-rule:nonzero;"/>
                </g>
                <g transform="matrix(1,0,0,1,-47.7657,-51.2425)">
                    <path d="M757.734,298.758L627.497,197.732C604.466,179.739 582.366,160.586 561.281,140.347C524.156,104.959 473.758,76.666 415.08,61.603C272.519,25.005 159.582,89.897 108.214,185.181C29.72,330.785 -30.436,567.06 317.608,441.291C393.725,413.785 470.773,410.862 529.194,396.373L740.734,352.758L757.734,298.758Z" style="fill:rgb(252,158,79);fill-rule:nonzero;"/>
                </g>
                <circle cx="318.969" cy="70.515" r="7" style="fill:rgb(242,242,242);"/>
                <path d="M454.949,86.695L453.127,86.695L453.127,84.873L452.771,84.873L452.771,86.695L450.949,86.695L450.949,87.051L452.771,87.051L452.771,88.873L453.127,88.873L453.127,87.051L454.949,87.051L454.949,86.695Z" style="fill:rgb(242,242,242);fill-rule:nonzero;"/>
                <path d="M637.949,238.695L636.127,238.695L636.127,236.873L635.771,236.873L635.771,238.695L633.949,238.695L633.949,239.051L635.771,239.051L635.771,240.873L636.127,240.873L636.127,239.051L637.949,239.051L637.949,238.695Z" style="fill:rgb(242,242,242);fill-rule:nonzero;"/>
                <path d="M624.949,285.695L623.127,285.695L623.127,283.873L622.771,283.873L622.771,285.695L620.949,285.695L620.949,286.051L622.771,286.051L622.771,287.873L623.127,287.873L623.127,286.051L624.949,286.051L624.949,285.695Z" style="fill:rgb(242,242,242);fill-rule:nonzero;"/>
                <path d="M65.949,325.695L64.127,325.695L64.127,323.873L63.771,323.873L63.771,325.695L61.949,325.695L61.949,326.051L63.771,326.051L63.771,327.873L64.127,327.873L64.127,326.051L65.949,326.051L65.949,325.695Z" style="fill:rgb(242,242,242);fill-rule:nonzero;"/>
                <path d="M145.949,107.695L144.127,107.695L144.127,105.873L143.771,105.873L143.771,107.695L141.949,107.695L141.949,108.051L143.771,108.051L143.771,109.873L144.127,109.873L144.127,108.051L145.949,108.051L145.949,107.695Z" style="fill:rgb(242,242,242);fill-rule:nonzero;"/>
                <path d="M456.949,293.695L455.127,293.695L455.127,291.873L454.771,291.873L454.771,293.695L452.949,293.695L452.949,294.051L454.771,294.051L454.771,295.873L455.127,295.873L455.127,294.051L456.949,294.051L456.949,293.695Z" style="fill:rgb(242,242,242);fill-rule:nonzero;"/>
                <path d="M265.949,43.695L264.127,43.695L264.127,41.873L263.771,41.873L263.771,43.695L261.949,43.695L261.949,44.051L263.771,44.051L263.771,45.873L264.127,45.873L264.127,44.051L265.949,44.051L265.949,43.695Z" style="fill:rgb(242,242,242);fill-rule:nonzero;"/>
                <g transform="matrix(1,0,0,1,-47.7657,-51.2425)">
                    <path d="M314.415,238.915L312.145,239.265C312.855,243.805 313.415,248.445 313.825,253.035L316.115,252.835C315.705,248.185 315.135,243.505 314.415,238.915Z" style="fill:rgb(230,230,230);fill-rule:nonzero;"/>
                </g>
                <g transform="matrix(1,0,0,1,-47.7657,-51.2425)">
                    <path d="M308.205,211.575L306.005,212.245C307.335,216.645 308.525,221.155 309.535,225.645L311.785,225.135C310.755,220.595 309.545,216.035 308.205,211.575Z" style="fill:rgb(230,230,230);fill-rule:nonzero;"/>
                </g>
                <g transform="matrix(1,0,0,1,-47.7657,-51.2425)">
                    <path d="M298.295,185.355L296.205,186.315C298.125,190.505 299.925,194.805 301.555,199.105L303.705,198.295C302.055,193.945 300.245,189.585 298.295,185.355Z" style="fill:rgb(230,230,230);fill-rule:nonzero;"/>
                </g>
                <g transform="matrix(1,0,0,1,-47.7657,-51.2425)">
                    <path d="M284.895,160.775L282.955,162.005C285.425,165.885 287.795,169.905 289.995,173.935L292.015,172.835C289.795,168.755 287.395,164.695 284.895,160.775Z" style="fill:rgb(230,230,230);fill-rule:nonzero;"/>
                </g>
                <g transform="matrix(1,0,0,1,-47.7657,-51.2425)">
                    <path d="M268.235,138.245L266.485,139.735C269.465,143.235 272.365,146.895 275.105,150.595L276.945,149.225C274.185,145.485 271.255,141.785 268.235,138.245Z" style="fill:rgb(230,230,230);fill-rule:nonzero;"/>
                </g>
                <g transform="matrix(1,0,0,1,-47.7657,-51.2425)">
                    <path d="M248.655,118.185L247.125,119.895C250.565,122.965 253.935,126.195 257.145,129.485L258.795,127.875C255.545,124.545 252.135,121.285 248.655,118.185Z" style="fill:rgb(230,230,230);fill-rule:nonzero;"/>
                </g>
                <g transform="matrix(1,0,0,1,-47.7657,-51.2425)">
                    <path d="M226.535,100.965L225.245,102.865C229.065,105.435 232.845,108.175 236.475,111.005L237.895,109.195C234.215,106.335 230.395,103.565 226.535,100.965Z" style="fill:rgb(230,230,230);fill-rule:nonzero;"/>
                </g>
                <g transform="matrix(1,0,0,1,-47.7657,-51.2425)">
                    <path d="M206.405,89.005L206.405,91.605C208.795,92.855 211.165,94.165 213.485,95.505L214.635,93.515C211.935,91.955 209.192,90.452 206.405,89.005Z" style="fill:rgb(230,230,230);fill-rule:nonzero;"/>
                </g>
                <g transform="matrix(1,0,0,1,-47.7657,-51.2425)">
                    <path d="M314.57,267.221L316.869,267.179C316.911,269.501 316.914,271.834 316.878,274.115L314.58,274.08C314.614,271.824 314.611,269.516 314.57,267.221Z" style="fill:rgb(230,230,230);fill-rule:nonzero;"/>
                </g>
                <g transform="matrix(1,0,0,1,-47.7657,-51.2425)">
                    <path d="M179.415,435.915L177.145,436.265C177.855,440.805 178.415,445.445 178.825,450.035L181.115,449.835C180.705,445.185 180.135,440.505 179.415,435.915Z" style="fill:rgb(230,230,230);fill-rule:nonzero;"/>
                </g>
                <g transform="matrix(1,0,0,1,-47.7657,-51.2425)">
                    <path d="M173.205,408.575L171.005,409.245C172.335,413.645 173.525,418.155 174.535,422.645L176.785,422.135C175.755,417.595 174.545,413.035 173.205,408.575Z" style="fill:rgb(230,230,230);fill-rule:nonzero;"/>
                </g>
                <g transform="matrix(1,0,0,1,-47.7657,-51.2425)">
                    <path d="M163.295,382.355L161.205,383.315C163.125,387.505 164.925,391.805 166.555,396.105L168.705,395.295C167.055,390.945 165.245,386.585 163.295,382.355Z" style="fill:rgb(230,230,230);fill-rule:nonzero;"/>
                </g>
                <g transform="matrix(1,0,0,1,-47.7657,-51.2425)">
                    <path d="M149.895,357.775L147.955,359.005C150.425,362.885 152.795,366.905 154.995,370.935L157.015,369.835C154.795,365.755 152.395,361.695 149.895,357.775Z" style="fill:rgb(230,230,230);fill-rule:nonzero;"/>
                </g>
                <g transform="matrix(1,0,0,1,-47.7657,-51.2425)">
                    <path d="M133.235,335.245L131.485,336.735C134.465,340.235 137.365,343.895 140.105,347.595L141.945,346.225C139.185,342.485 136.255,338.785 133.235,335.245Z" style="fill:rgb(230,230,230);fill-rule:nonzero;"/>
                </g>
                <g transform="matrix(1,0,0,1,-47.7657,-51.2425)">
                    <path d="M113.655,315.185L112.125,316.895C115.565,319.965 118.935,323.195 122.145,326.485L123.795,324.875C120.545,321.545 117.135,318.285 113.655,315.185Z" style="fill:rgb(230,230,230);fill-rule:nonzero;"/>
                </g>
                <g transform="matrix(1,0,0,1,-47.7657,-51.2425)">
                    <path d="M91.535,297.965L90.245,299.865C94.065,302.435 97.845,305.175 101.475,308.005L102.895,306.195C99.215,303.335 95.395,300.565 91.535,297.965Z" style="fill:rgb(230,230,230);fill-rule:nonzero;"/>
                </g>
                <g transform="matrix(1,0,0,1,-47.7657,-51.2425)">
                    <path d="M71.405,286.005L71.405,288.605C73.795,289.855 76.165,291.165 78.485,292.505L79.635,290.515C76.935,288.955 74.192,287.452 71.405,286.005Z" style="fill:rgb(230,230,230);fill-rule:nonzero;"/>
                </g>
                <g transform="matrix(1,0,0,1,-47.7657,-51.2425)">
                    <path d="M179.57,464.221L181.869,464.179C181.911,466.501 181.914,468.834 181.878,471.115L179.58,471.08C179.614,468.824 179.611,466.516 179.57,464.221Z" style="fill:rgb(230,230,230);fill-rule:nonzero;"/>
                </g>
                <g transform="matrix(1,0,0,1,-47.7657,-51.2425)">
                    <path d="M641.415,336.915L639.145,337.265C639.855,341.805 640.415,346.445 640.825,351.035L643.115,350.835C642.705,346.185 642.135,341.505 641.415,336.915Z" style="fill:rgb(230,230,230);fill-rule:nonzero;"/>
                </g>
                <g transform="matrix(1,0,0,1,-47.7657,-51.2425)">
                    <path d="M635.205,309.575L633.005,310.245C634.335,314.645 635.525,319.155 636.535,323.645L638.785,323.135C637.755,318.595 636.545,314.035 635.205,309.575Z" style="fill:rgb(230,230,230);fill-rule:nonzero;"/>
                </g>
                <g transform="matrix(1,0,0,1,-47.7657,-51.2425)">
                    <path d="M625.295,283.355L623.205,284.315C625.125,288.505 626.925,292.805 628.555,297.105L630.705,296.295C629.055,291.945 627.245,287.585 625.295,283.355Z" style="fill:rgb(230,230,230);fill-rule:nonzero;"/>
                </g>
                <g transform="matrix(1,0,0,1,-47.7657,-51.2425)">
                    <path d="M611.895,258.775L609.955,260.005C612.425,263.885 614.795,267.905 616.995,271.935L619.015,270.835C616.795,266.755 614.395,262.695 611.895,258.775Z" style="fill:rgb(230,230,230);fill-rule:nonzero;"/>
                </g>
                <g transform="matrix(1,0,0,1,-47.7657,-51.2425)">
                    <path d="M595.235,236.245L593.485,237.735C596.465,241.235 599.365,244.895 602.105,248.595L603.945,247.225C601.185,243.485 598.255,239.785 595.235,236.245Z" style="fill:rgb(230,230,230);fill-rule:nonzero;"/>
                </g>
                <g transform="matrix(1,0,0,1,-47.7657,-51.2425)">
                    <path d="M575.655,216.185L574.125,217.895C577.565,220.965 580.935,224.195 584.145,227.485L585.795,225.875C582.545,222.545 579.135,219.285 575.655,216.185Z" style="fill:rgb(230,230,230);fill-rule:nonzero;"/>
                </g>
                <g transform="matrix(1,0,0,1,-47.7657,-51.2425)">
                    <path d="M553.535,198.965L552.245,200.865C556.065,203.435 559.845,206.175 563.475,209.005L564.895,207.195C561.215,204.335 557.395,201.565 553.535,198.965Z" style="fill:rgb(230,230,230);fill-rule:nonzero;"/>
                </g>
                <g transform="matrix(1,0,0,1,-47.7657,-51.2425)">
                    <path d="M533.405,187.005L533.405,189.605C535.795,190.855 538.165,192.165 540.485,193.505L541.635,191.515C538.935,189.955 536.192,188.452 533.405,187.005Z" style="fill:rgb(230,230,230);fill-rule:nonzero;"/>
                </g>
                <g transform="matrix(1,0,0,1,-47.7657,-51.2425)">
                    <path d="M641.57,365.221L643.869,365.179C643.911,367.501 643.914,369.834 643.878,372.115L641.58,372.08C641.614,369.824 641.611,367.516 641.57,365.221Z" style="fill:rgb(230,230,230);fill-rule:nonzero;"/>
                </g>
                <path d="M149.295,199.895L147.6,199.895L147.6,198.199L147.269,198.199L147.269,199.895L145.573,199.895L145.573,200.225L147.269,200.225L147.269,201.921L147.6,201.921L147.6,200.225L149.295,200.225L149.295,199.895Z" style="fill:rgb(242,242,242);fill-rule:nonzero;"/>
                <path d="M129.754,302.252L128.059,302.252L128.059,300.556L127.728,300.556L127.728,302.252L126.032,302.252L126.032,302.583L127.728,302.583L127.728,304.278L128.059,304.278L128.059,302.583L129.754,302.583L129.754,302.252Z" style="fill:rgb(242,242,242);fill-rule:nonzero;"/>
                <path d="M72.417,391.959L70.721,391.959L70.721,390.264L70.39,390.264L70.39,391.959L68.695,391.959L68.695,392.29L70.39,392.29L70.39,393.986L70.721,393.986L70.721,392.29L72.417,392.29L72.417,391.959Z" style="fill:rgb(242,242,242);fill-rule:nonzero;"/>
                <g transform="matrix(1,0,0,1,-47.7657,-51.2425)">
                    <path d="M279.684,329.425C266.054,309.165 258.772,285.293 258.772,260.874C258.772,193.502 314.211,138.063 381.583,138.063C448.955,138.063 504.394,193.502 504.394,260.874C504.394,328.246 448.955,383.685 381.583,383.685C366.21,383.685 350.974,380.799 336.666,375.177C331.875,392.277 316.172,404.185 298.413,404.185C276.62,404.185 258.687,386.253 258.687,364.459C258.687,349.823 266.776,336.326 279.684,329.425Z" style="fill:rgb(63,61,86);fill-rule:nonzero;"/>
                </g>
                <g transform="matrix(1,0,0,1,-47.7657,-51.2425)">
                    <path d="M380.894,190.679C409.048,190.679 428.418,206.296 428.418,228.744C428.418,243.609 421.21,253.895 407.321,262.078C394.258,269.661 389.828,275.217 389.828,284.826C389.828,284.826 389.828,284.826 389.828,284.826C389.828,288.08 387.151,290.758 383.897,290.758L369.504,290.758C366.328,290.758 363.687,288.207 363.577,285.033L363.551,284.301C362.275,268.835 367.68,259.225 381.269,251.267C393.957,243.684 399.288,238.879 399.288,229.57C399.288,220.26 390.279,213.428 379.092,213.428C370.589,213.428 363.861,217.567 360.774,224.323C358.563,228.986 353.822,231.951 348.662,231.897C338.91,231.897 332.468,221.526 337.029,212.906C344.243,199.271 359.465,190.679 380.894,190.679ZM361.148,319.362C361.148,310.728 368.356,303.896 377.215,303.896C386.149,303.896 393.357,310.653 393.357,319.362C393.357,328.071 386.149,334.828 377.215,334.828C368.281,334.828 361.148,328.071 361.148,319.362L361.148,319.362Z" style="fill:rgb(252,158,79);fill-rule:nonzero;"/>
                </g>
            </g>
        </g>
    </g>
    <g transform="matrix(1,0,0,1,16.0627,-156.612)">
        <circle cx="3385.1" cy="648.253" r="228.894" style="fill:url(#_Radial2);"/>
    </g>
    <g transform="matrix(1,0,0,1,-1301.08,1176.6)">
        <circle cx="3385.1" cy="648.253" r="228.894" style="fill:url(#_Radial3);"/>
    </g>
    <defs>
        <radialGradient id="_Radial2" cx="0" cy="0" r="1" gradientUnits="userSpaceOnUse" gradientTransform="matrix(457.788,0,0,457.788,3300.77,551.877)"><stop offset="0" style="stop-color:rgb(244,68,46);stop-opacity:1"/><stop offset="0.88" style="stop-color:rgb(123,35,40);stop-opacity:1"/><stop offset="1" style="stop-color:black;stop-opacity:1"/></radialGradient>
        <radialGradient id="_Radial3" cx="0" cy="0" r="1" gradientUnits="userSpaceOnUse" gradientTransform="matrix(437.71,-4.01569,4.01569,437.71,3304.79,483.61)"><stop offset="0" style="stop-color:rgb(244,68,46);stop-opacity:1"/><stop offset="1" style="stop-color:rgb(123,35,40);stop-opacity:1"/><stop offset="1" style="stop-color:black;stop-opacity:1"/></radialGradient>
    </defs>
</svg>
