<?xml version="1.0" encoding="UTF-8" standalone="no"?>
<!DOCTYPE svg PUBLIC "-//W3C//DTD SVG 1.1//EN" "http://www.w3.org/Graphics/SVG/1.1/DTD/svg11.dtd">
<svg width="100%" height="100%" viewBox="0 0 512 512" version="1.1" xmlns="http://www.w3.org/2000/svg" xmlns:xlink="http://www.w3.org/1999/xlink" xml:space="preserve" xmlns:serif="http://www.serif.com/" style="fill-rule:evenodd;clip-rule:evenodd;stroke-linejoin:round;stroke-miterlimit:2;">
    <g transform="matrix(1,0,0,1,256,256)">
        <g id="gift.svg" transform="matrix(1,0,0,1,-256,-256)">
            <path d="M388.4,76.668C383.353,71.574 376.47,68.709 369.3,68.717L347.135,68.676L350.141,65.601C355.097,60.769 357.895,54.133 357.895,47.211C357.895,33.121 346.301,21.527 332.211,21.527C325.324,21.527 318.718,24.297 313.891,29.21L277.315,65.65L250.479,38.714C245.684,33.874 239.144,31.151 232.331,31.158L232.282,31.158C218.191,31.169 206.603,42.767 206.603,56.858C206.603,60.874 207.544,64.835 209.351,68.421L184.166,68.374L184.115,68.374C169.308,68.374 157.116,80.544 157.09,95.351L157.036,125.127C157.036,128.419 159.744,131.127 163.036,131.127L171.912,131.127L171.912,238.25C171.929,253.07 184.118,265.259 198.938,265.276L354.379,265.276C369.199,265.259 381.388,253.07 381.405,238.25L381.405,131.127L390.228,131.127C393.515,131.127 396.222,128.425 396.228,125.138L396.281,95.794C396.314,88.625 393.474,81.733 388.4,76.668Z"/>
            <path d="M298.03,253.276L256.572,253.276L256.636,131.127L298.093,131.127L298.03,253.276Z" style="fill:rgb(255,173,0);"/>
            <path d="M369.405,238.25C369.396,246.489 362.618,253.267 354.379,253.276L310.03,253.276L310.093,131.127L369.405,131.127L369.405,238.25Z" style="fill:rgb(244,68,46);"/>
            <path d="M244.572,253.276L198.938,253.276C190.699,253.267 183.921,246.489 183.912,238.25L183.912,131.127L244.636,131.127L244.572,253.276Z" style="fill:rgb(244,68,46);"/>
            <path d="M298.099,119.127L256.642,119.127L256.662,80.508L298.119,80.585L298.099,119.127Z" style="fill:rgb(255,173,0);"/>
            <path d="M384.238,119.127L310.1,119.127L310.12,80.607L369.284,80.717C377.517,80.731 384.284,87.51 384.284,95.743L384.238,119.127Z" style="fill:rgb(244,68,46);"/>
            <path d="M244.642,119.127L169.047,119.127L169.09,95.373C169.104,87.14 175.882,80.374 184.115,80.373L184.145,80.373L244.662,80.485L244.642,119.127Z" style="fill:rgb(244,68,46);"/>
            <path d="M322.359,37.711C324.921,35.173 328.384,33.748 331.991,33.748C339.498,33.748 345.676,39.926 345.676,47.433C345.676,51.083 344.215,54.586 341.622,57.155L330.46,68.569L291.385,68.569L322.359,37.711Z" style="fill:rgb(255,0,0);"/>
            <path d="M222.625,47.148C225.183,44.585 228.662,43.148 232.283,43.158L232.309,43.158C235.939,43.155 239.423,44.606 241.979,47.184L263.236,68.521L224.252,68.17L222.589,66.5C217.291,61.182 217.307,52.446 222.625,47.147L222.625,47.148Z" style="fill:rgb(255,0,11);"/>
            <g>
                <path d="M5.347,392.523C5.122,391.896 5,391.223 5,390.523C5,388.273 6.265,386.206 8.267,385.181C42.43,367.7 98.656,338.164 104.1,333.32L119.03,320.025C119.153,319.913 119.281,319.813 119.412,319.713C151.001,295.82 193.497,291.67 229.112,309L235.298,311.989C244.167,316.265 253.886,318.492 263.732,318.505L308.89,318.505L342.855,300.036C360.118,290.095 381.915,292.18 396.98,305.214L403.694,301.597C403.738,301.573 403.783,301.55 403.828,301.527C417.87,294.409 436.371,299.577 446.836,312.701L450.022,310.982C469.705,300.323 494.625,307.137 506.145,326.329C507.773,329.033 507.002,332.584 504.4,334.37L348.435,441.457C348.201,441.618 347.955,441.762 347.7,441.888C325.508,452.813 300.393,456.358 276.044,452.003L185.874,435.397C185.748,435.375 185.623,435.348 185.499,435.316C178.693,433.597 171.48,434.554 165.358,437.988L75.775,487.952C74.862,488.479 75.775,487.952 75.775,487.952C75.775,487.952 75.775,491.243 75.775,487.952C75.775,487.794 66.269,483.978 66.282,483.822C62.416,484.308 50.164,466.161 33.697,445.286C21.487,429.807 2.908,415.529 5,392.044L5.347,392.523Z"/>
            </g>
            <path d="M68.53,479.596C68.774,479.402 69.034,479.226 69.31,479.07L159.452,427.545C168.193,422.626 178.492,421.225 188.229,423.632L278.2,440.2C299.867,444.073 322.214,440.963 342,431.319L492.517,327.973C483.258,317.596 467.955,314.921 455.725,321.543L381.606,361.528L374.175,365.446C374.262,366.656 374.321,367.873 374.321,369.104C374.321,369.106 374.321,369.108 374.321,369.11C374.321,372.402 371.613,375.11 368.321,375.11C368.231,375.11 368.14,375.108 368.05,375.104L316.883,372.788C301.851,372.111 286.789,372.807 271.883,374.866C271.589,374.91 271.293,374.932 270.996,374.932C267.704,374.932 264.996,372.223 264.996,368.932C264.996,365.925 267.256,363.36 270.238,362.98C285.867,360.821 301.661,360.092 317.423,360.8L361.805,362.805C358.711,344.262 342.518,330.53 323.719,330.505L263.732,330.505C252.076,330.489 240.572,327.853 230.073,322.792L223.888,319.801C192.39,304.475 154.816,308.095 126.824,329.153L112.077,342.283C103.876,349.584 28.717,388.197 13.733,395.864C12.887,396.297 11.95,396.523 11,396.523C9.622,396.523 8.347,396.048 7.33,395.255L68.53,479.596Z" style="fill:rgb(255,228,204);"/>
            <path d="M375.957,350.941L371.733,353.168C369.797,347.352 366.818,341.936 362.944,337.186L409.314,312.2C417.634,308.029 428.906,311.017 436.023,318.536L375.957,350.941Z" style="fill:rgb(255,228,204);"/>
            <path d="M348.657,310.541L348.8,310.461C360.192,303.875 374.377,304.262 385.392,311.461L353.826,328.469C347.546,323.801 340.265,320.661 332.56,319.297L348.657,310.541Z" style="fill:rgb(255,228,204);"/>
        </g>
        <g id="gift.svg1" serif:id="gift.svg">
        </g>
    </g>
</svg>
